<?xml version="1.0" encoding="UTF-8"?>
<svg id="a" data-name="Layer 1" xmlns="http://www.w3.org/2000/svg" viewBox="0 0 250 130">
  <defs>
    <style>
      .b {
        fill: none;
      }

      .c {
        fill: #fff;
      }

      .d {
        fill: #ddd;
      }

      .e {
        fill: #9b9b9b;
      }
    </style>
  </defs>
  <g>
    <path class="d" d="m49.66,58.16h0c1.02-1.02,2.35-1.53,3.69-1.53-1.34,0-2.69.51-3.71,1.53l-10.44,10.44c-.16.16-.16.41,0,.57l6.83,6.83c.16.16.41.16.57,0l6.76-6.76-3.69-3.69c-2.04-2.04-2.04-5.36,0-7.4Z"/>
    <path class="c" d="m67.4,69.28c.21-.21.21-.56,0-.77l-10.35-10.35c-1.03-1.03-2.37-1.54-3.71-1.53,1.37,0,2.75.54,3.78,1.62,1.97,2.07,1.86,5.36-.16,7.38l-3.61,3.61,6.66,6.66c.21.21.56.21.77,0l6.63-6.63Z"/>
    <path class="b" d="m52.84,60.75v-.07c-.34.18-.57.54-.57.95,0,.59.48,1.07,1.07,1.07s1.07-.48,1.07-1.07c0-.41-.23-.77-.57-.95v.07h-1Z"/>
    <path class="e" d="m57.03,58.16c-.89-.89-2.02-1.39-3.19-1.51v4.03c.34.18.57.54.57.95,0,.59-.48,1.07-1.07,1.07s-1.07-.48-1.07-1.07c0-.41.23-.77.57-.95v-4.03c-1.16.11-2.3.62-3.19,1.51h0c-2.04,2.04-2.04,5.36,0,7.4l3.69,3.69,3.69-3.69c2.04-2.04,2.04-5.36,0-7.4Z"/>
    <path class="c" d="m53.77,53.93l-.17-.03c-.17-.04-.35-.04-.53,0l-.17.03s-.07.04-.07.08v6.66c.15-.08.32-.12.5-.12s.35.04.5.12v-6.66s-.03-.08-.07-.08Z"/>
  </g>
  <g>
    <path class="c" d="m210.93,66.52h-7.81c.04,1.27.6,2.19,1.64,2.76,1.76.97,3.4.65,4.94-.63.21.24.41.46.65.73-1.09,1.26-2.49,1.57-4.03,1.5-2.04-.08-3.74-1.42-4.28-3.36-.58-2.09.2-4.32,1.92-5.38,2.33-1.44,6.03-.64,6.82,2.68.03.12.1.22.16.34v1.36Zm-1.24-.92c.01-1.81-1.48-3.13-3.42-3.08-1.74.05-3.17,1.45-3.08,3.08h6.5Z"/>
    <path class="c" d="m79.77,62.12c.04-.27.06-.47.09-.72h2.69v9.3h-2.52c-.04-.25-.08-.51-.13-.78-2.56,1.48-5.1,1.26-6.61-.57-1.52-1.83-1.47-4.88.04-6.66,1.13-1.33,4.01-2.31,6.43-.58Zm-2.36,1.31c-1.48.01-2.44,1.07-2.42,2.68.02,1.59,1,2.59,2.53,2.58,1.39-.01,2.43-1.15,2.42-2.65-.01-1.54-1.06-2.62-2.53-2.61Z"/>
    <path class="c" d="m95.8,70.74h-2.71c0-1.09,0-2.14,0-3.19,0-.63,0-1.26,0-1.89-.03-1.37-.71-2.13-1.92-2.15-1.24-.02-2.22.83-2.27,2.07-.06,1.44-.02,2.88-.03,4.31,0,.25,0,.5,0,.82h-2.73v-9.31h2.55c.03.27.06.53.1.91.88-.73,1.83-1.1,2.93-1.12,2.4-.04,3.85,1.06,4.05,3.43.17,2,.03,4.02.03,6.12Z"/>
    <path class="c" d="m98.34,69.97c.34-.71.62-1.29.86-1.81.72.31,1.66.46,2.7.63.45.08,2.39.24,2.39-.69,0-.49-.32-.65-.58-.72-.92-.24-1.88-.37-2.81-.59-1.53-.36-2.22-1.1-2.32-2.4-.09-1.2.69-2.31,2-2.83,1.6-.63,4.25-.47,6.09.43-.28.62-.57,1.24-.76,1.66-1.61-.34-2.61-.49-3.81-.35-.33.04-.88.21-.81.83.04.4.38.6.65.67.85.23,1.74.34,2.6.53,1.01.23,1.97.58,2.33,1.69.44,1.36-.08,2.69-1.43,3.28-2.38,1.05-4.72.72-7.11-.35Z"/>
    <path class="c" d="m160.69,63.37c1.07-1.49,2.46-1.99,4.15-1.88,2.16.14,3.21,1.49,3.31,3.35.1,1.93.02,3.88.02,5.88h-1.18c0-.55,0-1.09,0-1.63-.02-1.34,0-2.68-.1-4.01-.12-1.63-1.05-2.49-2.55-2.53-1.65-.04-2.98.91-3.14,2.46-.15,1.5-.1,3.02-.13,4.53,0,.37,0,.75,0,1.18h-1.21c0-.75,0-1.5,0-2.24,0-1.06.02-2.12-.01-3.18-.05-1.57-.9-2.56-2.3-2.73-1.54-.19-2.95.61-3.35,2-.17.57-.19,1.19-.2,1.79-.03,1.43,0,2.87,0,4.36h-1.21v-9.12h1.09c.02.43.04.87.07,1.52.97-1.22,2.16-1.71,3.52-1.67,1.35.04,2.54.49,3.23,1.92Z"/>
    <path class="c" d="m140.91,63.35c1.36-1.8,3.08-2.18,5.03-1.72,1.53.37,2.3,1.51,2.39,2.98.11,2.01.03,4.03.03,6.1h-1.2c0-.29,0-.58,0-.88,0-1.47.02-2.93,0-4.4-.03-1.85-1.02-2.89-2.69-2.9-1.8,0-3.08,1.16-3.12,2.92-.04,1.46-.01,2.93-.01,4.4,0,.27,0,.54,0,.87h-1.29c0-1.39,0-2.77,0-4.15,0-.61.05-1.22-.04-1.82-.17-1.24-.98-2.01-2.18-2.19-1.32-.2-2.66.37-3.16,1.46-.27.58-.43,1.25-.45,1.88-.06,1.58-.02,3.17-.02,4.81h-1.15v-9.13h1.08c.03.43.05.86.09,1.46.94-1.22,2.14-1.62,3.48-1.6,1.37.02,2.51.54,3.22,1.9Z"/>
    <path class="c" d="m179.47,68.64c.23.26.43.48.62.7-.87,1.51-3.97,2.05-5.95,1.02-2.14-1.1-3.06-3.62-2.19-6.03.77-2.11,3.01-3.27,5.36-2.77,2.13.45,3.54,2.47,3.36,4.92h-7.76c.05,1.39.7,2.29,1.78,2.89,1.47.81,3.13.55,4.78-.73Zm.02-3.05c-.08-1.91-1.57-3.13-3.6-3.08-1.48.04-3.11,1.56-2.91,3.08h6.51Z"/>
    <path class="c" d="m124.68,70.88c-2.75,0-4.75-1.99-4.75-4.73,0-2.69,2.07-4.74,4.79-4.72,2.75.02,4.73,2.01,4.74,4.75,0,2.73-1.99,4.7-4.77,4.7Zm3.48-4.68c0-2.21-1.38-3.68-3.46-3.67-2.08,0-3.5,1.48-3.5,3.64,0,2.14,1.48,3.68,3.51,3.66,2.02-.02,3.45-1.52,3.44-3.63Z"/>
    <path class="c" d="m117.62,63.27c-.3.21-.56.4-.82.59-1.84-1.66-3.92-1.77-5.37-.29-1.33,1.36-1.34,3.85,0,5.24,1.4,1.46,3.55,1.35,5.38-.3.26.17.52.35.78.53-.66,1.37-2.58,2.14-4.43,1.81-2.17-.39-3.74-1.97-3.91-3.94-.22-2.51.88-4.42,2.95-5.14,2.1-.74,4.26-.16,5.44,1.52Z"/>
    <path class="c" d="m199.5,63.3c-.26.18-.53.37-.79.55-1.9-1.67-4.01-1.75-5.43-.23-1.27,1.36-1.24,3.85.06,5.19,1.43,1.46,3.57,1.35,5.38-.31.25.18.52.36.76.54-.37,1.24-2.59,2.2-4.64,1.76-2.18-.48-3.65-2.13-3.71-4.19-.07-2.62,1.12-4.35,3.4-4.97,2.05-.55,4.12.13,4.97,1.67Z"/>
    <path class="c" d="m185.44,70.73h-1.14v-9.15h1.1v1.65c.94-1.34,2.08-1.81,3.5-1.74v1.09c-1.51.03-2.74.53-3.23,2.08-.16.52-.22,1.09-.23,1.63-.03,1.46-.01,2.92-.01,4.43Z"/>
  </g>
</svg>