<svg width="177" height="36" viewBox="0 0 177 36" fill="none" xmlns="http://www.w3.org/2000/svg">
<g clip-path="url(#clip0_87_117)">
<path d="M32.3871 34.9277H43.1777V10.6859H32.3871V34.9277Z" fill="white"/>
<path d="M10.8102 34.9766H21.6008L21.6008 10.7347H10.8102L10.8102 34.9766Z" fill="white"/>
<path d="M21.5963 10.7412L32.387 10.7412V9.82285e-05L21.5963 9.82285e-05V10.7412Z" fill="white"/>
<path d="M0.00011158 10.7412L10.7908 10.7412L10.7908 9.82285e-05L0.00011158 9.82285e-05L0.00011158 10.7412Z" fill="white"/>
<path d="M43.2057 10.7412L53.9963 10.7412V9.82285e-05L43.2057 9.82285e-05V10.7412Z" fill="white"/>
<path d="M78.2856 15.2629H85.1857C85.0995 20.5322 80.9763 24.369 74.9638 24.369C68.5484 24.369 64.283 20.0152 64.283 14.203C64.283 8.39086 68.5505 4.03711 74.9638 4.03711C80.9763 4.03711 85.1017 7.87384 85.1857 13.1431H78.2856C78.1133 11.5404 76.8832 10.166 74.8496 10.166C72.4153 10.166 71.099 12.1414 71.099 14.203C71.099 16.2647 72.4153 18.2401 74.8496 18.2401C76.8832 18.2401 78.1133 16.8657 78.2856 15.2629Z" fill="white"/>
<path d="M102.939 23.9404H96.4955V23.3114C95.4938 23.8564 94.4899 24.1989 92.9733 24.1989C89.2507 24.1989 85.9009 21.1916 85.9009 16.6957C85.9009 12.1997 89.2507 9.19238 92.9733 9.19238C94.492 9.19238 95.4938 9.53706 96.4955 10.0799V9.62108H102.939V23.9383V23.9404ZM96.4955 18.6711V14.7202C95.8083 14.2053 95.1793 14.0912 94.6062 14.0912C93.2318 14.0912 92.0297 15.0369 92.0297 16.6978C92.0297 18.3587 93.2318 19.3045 94.6062 19.3045C95.1793 19.3045 95.8083 19.1903 96.4955 18.6754V18.6711Z" fill="white"/>
<path d="M120.998 16.6957C120.998 21.1916 117.648 24.1989 113.926 24.1989C112.407 24.1989 111.405 23.8542 110.403 23.3114V29.9551H103.96V9.62108H110.403V10.0799C111.405 9.53491 112.407 9.19238 113.926 9.19238C117.648 9.19238 120.998 12.1997 120.998 16.6957ZM114.869 16.6957C114.869 15.0347 113.667 14.089 112.293 14.089C111.72 14.089 111.091 14.2032 110.403 14.718V18.6689C111.091 19.1838 111.72 19.298 112.293 19.298C113.667 19.298 114.869 18.3523 114.869 16.6913V16.6957Z" fill="white"/>
<path d="M128.493 12.3997H135.737V17.8414H128.493V23.9401H121.793V4.46777H137.17V10.0516H128.493V12.3997Z" fill="white"/>
<path d="M152.676 16.7237C152.676 21.0192 149.441 24.3691 144.602 24.3691C139.764 24.3691 136.528 21.0192 136.528 16.7237C136.528 12.4281 139.764 9.19238 144.602 9.19238C149.441 9.19238 152.676 12.4862 152.676 16.7237ZM146.978 16.7818C146.978 15.5496 145.977 14.4337 144.602 14.4337C143.228 14.4337 142.196 15.5496 142.196 16.7818C142.196 18.0141 143.198 19.158 144.602 19.158C146.007 19.158 146.978 18.0421 146.978 16.7818Z" fill="white"/>
<path d="M164.51 15.5214C161.989 15.5214 160.759 16.0363 159.841 16.6955V23.9403H153.398V9.62093H159.841V10.9953C161.043 10.0496 162.39 9.39258 164.51 9.39258V15.5214Z" fill="white"/>
<path d="M173.53 24.369C170.035 24.369 167.687 21.534 167.687 17.2664V15.5193H165.397V9.39047H167.687V5.32324H174.131V9.39047H177V15.5193H174.131V16.8657C174.131 17.8395 174.531 18.4685 175.677 18.4685H177V24.3669H173.53V24.369Z" fill="white"/>
<path d="M126.205 34.9421H125.104L122.168 28.6797H123.469L125.655 33.3738L127.827 28.6797H129.141L126.205 34.9421Z" fill="white"/>
<path d="M135.968 32.2861L135.942 32.2732V32.2861H130.873C131.048 33.2642 131.758 34.0569 132.978 34.0569C133.715 34.0569 134.251 33.7618 134.507 33.2793H135.834C135.472 34.393 134.346 35.1039 132.937 35.1039C130.979 35.1039 129.652 33.6692 129.652 31.8187C129.652 29.9682 130.979 28.5205 132.937 28.5205C134.708 28.5205 135.981 29.8626 135.994 31.7519C135.994 31.9264 135.994 32.1138 135.968 32.2883V32.2861ZM130.871 31.3598H134.746C134.626 30.287 133.941 29.5761 132.883 29.5761C131.743 29.5761 131.032 30.3538 130.871 31.3598Z" fill="white"/>
<path d="M143.639 31.4007V34.9423H142.418V31.4696C142.418 30.2761 141.748 29.5911 140.688 29.5911C140.018 29.5911 139.333 29.9659 138.809 30.6381V34.9423H137.575V28.6798H138.809V29.311C139.374 28.7876 140.098 28.4795 140.929 28.4795C142.551 28.4795 143.639 29.6191 143.639 31.4028V31.4007Z" fill="white"/>
<path d="M149.783 34.901C149.152 35.0884 148.805 35.1422 148.32 35.1422C146.858 35.1422 146.013 34.231 146.013 32.6067V29.7092H144.471V28.6773H146.013V26.3701H147.248V28.6773H149.594V29.7092H147.248V32.6067C147.248 33.5847 147.689 34.0005 148.549 34.0005C148.885 34.0005 149.273 33.9337 149.596 33.8389L149.783 34.8988V34.901Z" fill="white"/>
<path d="M157.172 34.9419H155.938V34.3258C155.373 34.8363 154.665 35.1444 153.818 35.1444C152.209 35.1444 151.108 34.0048 151.108 32.2082V28.6816H152.342V32.1414C152.342 33.3478 153.012 34.0199 154.059 34.0199C154.716 34.0199 155.427 33.658 155.938 32.988V28.6838H157.172V34.9462V34.9419Z" fill="white"/>
<path d="M160.445 29.6041C161.022 28.9341 161.825 28.5312 162.806 28.5312V29.6989C161.8 29.7247 161.009 30.1556 160.445 30.9332V34.9423H159.21V28.6799H160.445V29.6062V29.6041Z" fill="white"/>
<path d="M169.966 32.2861L169.94 32.2732V32.2861H164.871C165.046 33.2642 165.757 34.0569 166.976 34.0569C167.713 34.0569 168.249 33.7618 168.506 33.2793H169.833C169.471 34.393 168.344 35.1039 166.935 35.1039C164.977 35.1039 163.65 33.6692 163.65 31.8187C163.65 29.9682 164.977 28.5205 166.935 28.5205C168.706 28.5205 169.979 29.8626 169.994 31.7519C169.994 31.9264 169.994 32.1138 169.968 32.2883L169.966 32.2861ZM164.869 31.3598H168.745C168.624 30.287 167.939 29.5761 166.881 29.5761C165.742 29.5761 165.031 30.3538 164.869 31.3598Z" fill="white"/>
<path d="M172.327 32.9168C172.489 33.7225 173.092 34.1383 174.124 34.1383C175.009 34.1383 175.613 33.7893 175.613 33.227C175.613 32.7854 175.251 32.5032 174.688 32.4084L173.295 32.1671C172.301 32.0056 171.431 31.5359 171.431 30.4244C171.431 29.2309 172.478 28.4941 174.005 28.4941C175.186 28.4941 176.621 28.9638 176.754 30.5321L175.615 30.545C175.52 29.8082 174.891 29.4592 174.018 29.4592C173.146 29.4592 172.65 29.8212 172.65 30.3166C172.65 30.7066 172.933 31.0275 173.71 31.1611L174.917 31.3615C175.843 31.523 176.795 31.9388 176.795 33.1322C176.795 34.4205 175.656 35.1443 174.085 35.1443C172.515 35.1443 171.349 34.4873 171.175 32.9039L172.327 32.9168Z" fill="white"/>
</g>
<defs>
<clipPath id="clip0_87_117">
<rect width="177" height="35.1424" fill="white"/>
</clipPath>
</defs>
</svg>
