<?xml version="1.0" encoding="UTF-8"?>
<svg id="a" data-name="Layer 1" xmlns="http://www.w3.org/2000/svg" viewBox="0 0 250 130">
  <defs>
    <style>
      .b {
        fill: #fff;
      }
    </style>
  </defs>
  <g>
    <g>
      <path class="b" d="m91.19,54.61c0-1.55.21-3.01.63-4.37.42-1.36,1.05-2.54,1.88-3.56.83-1.01,1.85-1.82,3.07-2.41,1.22-.59,2.63-.89,4.22-.89s3.11.29,4.36.87c1.25.58,2.29,1.38,3.13,2.39.84,1.01,1.47,2.2,1.89,3.57.42,1.37.63,2.83.63,4.38s-.21,2.98-.63,4.33c-.42,1.35-1.05,2.53-1.87,3.54-.83,1.01-1.86,1.82-3.1,2.41-1.24.59-2.68.89-4.31.89s-3.07-.3-4.31-.89-2.27-1.39-3.1-2.41c-.83-1.01-1.45-2.19-1.86-3.54-.41-1.35-.62-2.79-.62-4.33Zm9.92,9.45c1.38,0,2.56-.26,3.56-.78.99-.52,1.81-1.22,2.45-2.08.64-.87,1.11-1.87,1.42-3.01.3-1.14.46-2.33.46-3.57,0-1.48-.18-2.8-.55-3.97-.36-1.17-.89-2.17-1.58-3-.69-.83-1.53-1.46-2.51-1.89-.98-.43-2.09-.65-3.31-.65-1.36,0-2.53.27-3.53.8-.99.53-1.81,1.24-2.45,2.11-.64.88-1.11,1.89-1.42,3.03-.31,1.14-.46,2.33-.46,3.57s.15,2.46.46,3.6c.3,1.14.78,2.15,1.42,3.01.64.87,1.46,1.56,2.45,2.07.99.51,2.19.77,3.59.77Z"/>
      <path class="b" d="m115.52,71.24h-1.77v-21.32h1.77v2.69h.06c.26-.49.59-.93.99-1.33.4-.39.85-.72,1.33-.97.48-.26.98-.45,1.49-.59.51-.14,1.01-.21,1.51-.21,1.24,0,2.29.21,3.16.62.87.41,1.58.98,2.14,1.7.56.72.97,1.57,1.23,2.55.26.98.38,2.04.38,3.16,0,1.06-.14,2.09-.41,3.07-.28.98-.69,1.85-1.25,2.58s-1.27,1.33-2.13,1.77c-.86.44-1.87.66-3.03.66-1.08,0-2.12-.24-3.12-.72-.99-.48-1.78-1.2-2.35-2.14v8.47Zm0-13.61c0,.87.12,1.69.35,2.47.24.78.58,1.46,1.02,2.04s.98,1.04,1.62,1.39c.64.34,1.36.52,2.17.52.91,0,1.7-.18,2.38-.55.68-.36,1.24-.86,1.67-1.49.43-.63.75-1.36.94-2.2.2-.84.28-1.74.24-2.7,0-.96-.13-1.82-.4-2.55-.27-.74-.63-1.36-1.11-1.87-.47-.51-1.02-.9-1.65-1.17-.63-.27-1.32-.4-2.07-.4-.83,0-1.57.17-2.21.5-.65.34-1.19.79-1.62,1.37-.43.58-.76,1.27-.99,2.07-.23.8-.34,1.66-.34,2.58Z"/>
      <path class="b" d="m135.78,65.27c-.22.04-.5.11-.86.21-.35.1-.75.15-1.18.15-.89,0-1.56-.22-2.02-.66-.46-.44-.69-1.24-.69-2.38v-11.19h-2.16v-1.48h2.16v-4.25h1.77v4.25h2.86v1.48h-2.86v10.48c0,.37,0,.7.03.97.02.28.08.5.18.68.1.18.25.31.46.38.21.08.5.12.87.12.24,0,.48-.02.72-.06.25-.04.49-.09.72-.15v1.45Z"/>
      <path class="b" d="m137.61,46.58v-2.63h1.95v2.63h-1.95Zm.09,18.63v-15.3h1.77v15.3h-1.77Z"/>
      <path class="b" d="m144.34,65.21h-1.77v-15.3h1.77v2.3h.06c.45-.89,1.1-1.56,1.95-2.02.85-.46,1.77-.69,2.78-.69.71,0,1.31.08,1.8.24.49.16.91.37,1.25.63.34.27.63.58.86.93.23.35.42.74.58,1.15.51-1,1.2-1.75,2.05-2.23.86-.48,1.84-.72,2.94-.72,1.04,0,1.87.17,2.5.52.62.34,1.1.8,1.43,1.36.33.56.56,1.21.66,1.93.11.73.16,1.48.16,2.24v9.66h-1.77v-10.57c0-1.1-.23-1.97-.69-2.6-.46-.63-1.32-.95-2.58-.95-.65,0-1.27.14-1.87.43-.6.29-1.13.72-1.58,1.31-.2.26-.36.56-.49.9-.13.34-.23.7-.31,1.08-.08.37-.13.75-.16,1.12-.03.37-.04.72-.04,1.03v8.24h-1.77v-10.57c0-1.1-.23-1.97-.69-2.6-.46-.63-1.32-.95-2.58-.95-.65,0-1.27.14-1.87.43-.6.29-1.13.72-1.58,1.31-.2.26-.36.56-.49.9-.13.34-.23.7-.31,1.08-.08.37-.13.75-.16,1.12-.03.37-.04.72-.04,1.03v8.24Z"/>
      <path class="b" d="m166.4,46.58v-2.63h1.95v2.63h-1.95Zm.09,18.63v-15.3h1.77v15.3h-1.77Z"/>
      <path class="b" d="m170.45,65.21v-1.56l10.16-12.25h-9.48v-1.48h11.75v1.57l-10.16,12.25h10.54v1.48h-12.82Z"/>
      <path class="b" d="m186.28,57.98c0,.83.11,1.61.32,2.35.22.74.54,1.38.96,1.92.42.54.96.97,1.61,1.3.65.32,1.4.49,2.24.49,1.16,0,2.16-.31,2.98-.92.83-.61,1.38-1.48,1.65-2.6h1.98c-.22.73-.5,1.4-.86,2.02-.35.62-.8,1.16-1.33,1.62-.53.46-1.16.82-1.89,1.08-.73.26-1.58.38-2.54.38-1.22,0-2.27-.21-3.16-.62-.89-.41-1.61-.98-2.19-1.7-.57-.72-.99-1.56-1.27-2.54-.28-.97-.41-2.02-.41-3.14s.16-2.17.49-3.16c.32-.98.79-1.85,1.39-2.58.6-.74,1.33-1.32,2.2-1.74.87-.42,1.85-.63,2.95-.63,2.11,0,3.76.72,4.96,2.17,1.2,1.45,1.79,3.55,1.77,6.3h-11.87Zm9.98-1.48c0-.75-.1-1.45-.31-2.11-.21-.66-.51-1.23-.92-1.71-.4-.48-.91-.87-1.52-1.15-.61-.29-1.31-.43-2.1-.43s-1.48.15-2.08.44c-.6.3-1.11.69-1.54,1.18-.42.49-.76,1.06-1.02,1.71-.26.65-.42,1.34-.5,2.07h9.98Z"/>
      <path class="b" d="m212.23,43.95h1.77v21.26h-1.77v-2.69h-.06c-.26.51-.59.96-.99,1.34-.4.38-.85.7-1.33.96-.48.26-.98.45-1.49.59-.51.14-1.01.21-1.51.21-1.24,0-2.29-.21-3.16-.62-.87-.41-1.58-.98-2.14-1.7-.56-.72-.97-1.57-1.23-2.55-.26-.98-.38-2.04-.38-3.16,0-1.06.14-2.09.41-3.07.28-.98.69-1.85,1.25-2.58s1.27-1.33,2.13-1.77c.86-.44,1.86-.66,3.03-.66,1.08,0,2.12.24,3.12.72.99.48,1.78,1.2,2.35,2.14v-8.42Zm0,13.55c0-.87-.12-1.69-.35-2.47-.24-.78-.58-1.46-1.02-2.04-.44-.58-.98-1.04-1.62-1.39-.64-.34-1.36-.52-2.17-.52-.93,0-1.72.18-2.39.55-.67.36-1.22.86-1.65,1.49-.43.63-.75,1.36-.94,2.2-.2.84-.28,1.74-.24,2.7,0,.96.13,1.82.4,2.55.27.74.63,1.36,1.11,1.87.47.51,1.02.9,1.65,1.17.63.27,1.32.4,2.07.4.83,0,1.56-.17,2.21-.5.65-.33,1.19-.79,1.62-1.37.43-.58.76-1.27.99-2.07.23-.8.34-1.66.34-2.58Z"/>
    </g>
    <path class="b" d="m103.72,86.26v-13.36h1.26v12.28h7.16v1.08h-8.42Z"/>
    <path class="b" d="m133.37,76.77c-.26-1.14-.74-1.95-1.45-2.43-.71-.48-1.63-.72-2.76-.72-.8,0-1.5.16-2.08.48-.58.32-1.06.75-1.44,1.3-.38.54-.66,1.17-.83,1.88-.18.71-.27,1.46-.27,2.25,0,.74.08,1.47.23,2.19.15.72.41,1.36.77,1.92.36.56.84,1.02,1.45,1.36.61.35,1.37.52,2.28.52.57,0,1.09-.09,1.56-.28.47-.19.88-.44,1.23-.77.35-.33.65-.71.89-1.16.24-.45.42-.93.55-1.47h1.32c-.15.64-.37,1.25-.65,1.83-.28.58-.66,1.08-1.12,1.51-.46.43-1.03.78-1.69,1.03-.66.25-1.44.38-2.33.38-1.03,0-1.91-.19-2.63-.57-.73-.38-1.33-.89-1.79-1.53-.46-.64-.8-1.39-1.01-2.24-.21-.85-.32-1.75-.32-2.7,0-1.27.16-2.36.47-3.25s.75-1.62,1.31-2.18c.56-.56,1.21-.97,1.97-1.22.75-.25,1.58-.38,2.47-.38.68,0,1.31.09,1.9.27.59.18,1.11.45,1.56.81.45.36.82.8,1.11,1.33.29.53.49,1.13.6,1.83h-1.3Z"/>
    <path class="b" d="m135.34,72.9h9.72v1.08h-4.23v12.28h-1.26v-12.28h-4.23v-1.08Z"/>
    <path class="b" d="m147.36,80.19v6.07l-1.26-.02v-13.34h5.23c1.47,0,2.6.28,3.38.83.78.55,1.17,1.44,1.17,2.68,0,.84-.17,1.51-.51,2-.34.49-.89.92-1.66,1.26.4.14.71.33.93.59s.39.56.5.89c.11.33.18.69.21,1.06.03.37.05.73.06,1.08.01.51.03.93.06,1.26.03.33.07.61.11.82.04.21.1.37.16.49.06.12.14.21.22.27v.11l-1.39.02c-.14-.22-.23-.53-.29-.93-.06-.4-.1-.81-.13-1.24-.03-.43-.06-.85-.07-1.26-.02-.41-.05-.74-.1-1-.07-.36-.19-.65-.36-.86-.17-.22-.37-.38-.6-.49-.24-.11-.5-.19-.79-.22-.29-.04-.59-.06-.9-.06h-3.97Zm3.93-1.08c.47,0,.91-.05,1.31-.15.4-.1.75-.26,1.05-.47.3-.22.53-.49.71-.83.17-.33.26-.74.26-1.21,0-.49-.09-.9-.27-1.22-.18-.32-.42-.58-.72-.76-.3-.19-.65-.32-1.04-.39-.39-.07-.79-.11-1.22-.11h-4.01v5.14h3.93Z"/>
    <path class="b" d="m157.23,79.59c0-.98.13-1.89.4-2.75.27-.85.66-1.6,1.18-2.24.52-.64,1.16-1.14,1.93-1.51.77-.37,1.65-.56,2.65-.56s1.95.18,2.74.55c.79.37,1.44.87,1.97,1.5.53.64.92,1.39,1.19,2.24.27.86.4,1.78.4,2.76s-.13,1.87-.4,2.72c-.27.85-.66,1.59-1.18,2.23-.52.64-1.17,1.14-1.95,1.51-.78.37-1.68.56-2.71.56s-1.93-.19-2.71-.56-1.43-.87-1.95-1.51c-.52-.64-.91-1.38-1.17-2.23-.26-.85-.39-1.75-.39-2.72Zm6.23,5.94c.87,0,1.61-.16,2.24-.49.62-.33,1.14-.76,1.54-1.31.4-.54.7-1.18.89-1.89.19-.72.29-1.47.29-2.25,0-.93-.11-1.76-.34-2.5-.23-.74-.56-1.36-.99-1.88-.43-.52-.96-.92-1.58-1.19-.62-.27-1.31-.41-2.08-.41-.85,0-1.59.17-2.22.5-.62.33-1.14.78-1.54,1.33-.4.55-.7,1.18-.89,1.9-.19.72-.29,1.47-.29,2.24s.1,1.55.29,2.26c.19.72.49,1.35.89,1.89.4.54.92.98,1.54,1.3.62.32,1.38.48,2.25.48Z"/>
    <path class="b" d="m170.24,72.9h9.72v1.08h-4.23v12.28h-1.26v-12.28h-4.23v-1.08Z"/>
    <path class="b" d="m201.1,76.77c-.26-1.14-.74-1.95-1.45-2.43-.71-.48-1.63-.72-2.76-.72-.8,0-1.5.16-2.08.48-.58.32-1.06.75-1.44,1.3-.38.54-.66,1.17-.83,1.88-.18.71-.27,1.46-.27,2.25,0,.74.08,1.47.23,2.19.15.72.41,1.36.77,1.92.36.56.84,1.02,1.45,1.36.61.35,1.37.52,2.28.52.57,0,1.09-.09,1.56-.28.47-.19.88-.44,1.23-.77.35-.33.65-.71.89-1.16.24-.45.42-.93.55-1.47h1.32c-.15.64-.37,1.25-.65,1.83-.28.58-.66,1.08-1.12,1.51-.46.43-1.03.78-1.69,1.03-.66.25-1.44.38-2.33.38-1.03,0-1.91-.19-2.63-.57-.73-.38-1.33-.89-1.79-1.53-.46-.64-.8-1.39-1.01-2.24-.21-.85-.32-1.75-.32-2.7,0-1.27.16-2.36.47-3.25s.75-1.62,1.31-2.18c.56-.56,1.21-.97,1.97-1.22.75-.25,1.58-.38,2.47-.38.68,0,1.31.09,1.9.27.59.18,1.11.45,1.56.81.45.36.82.8,1.11,1.33.29.53.49,1.13.6,1.83h-1.3Z"/>
    <path class="b" d="m204.25,86.26v-13.36h1.26v5.73h7.9v-5.73h1.26v13.36h-1.26v-6.55h-7.9v6.55h-1.26Z"/>
    <g>
      <polygon class="b" points="94.39 73.99 94.39 73.97 102.02 73.97 102.02 72.9 93.13 72.9 93.13 73.99 94.39 73.99"/>
      <polygon class="b" points="101.28 78.8 94.39 78.8 94.39 78.79 93.13 78.79 93.13 79.89 94.39 79.89 94.39 79.87 101.28 79.87 101.28 78.8"/>
      <polygon class="b" points="94.39 85.18 94.39 85.18 93.13 85.18 93.13 86.26 102.2 86.26 102.2 85.18 94.39 85.18"/>
    </g>
    <g>
      <polygon class="b" points="115.02 73.99 115.02 73.97 122.64 73.97 122.64 72.9 113.75 72.9 113.75 73.99 115.02 73.99"/>
      <polygon class="b" points="121.9 78.8 115.02 78.8 115.02 78.79 113.75 78.79 113.75 79.89 115.02 79.89 115.02 79.87 121.9 79.87 121.9 78.8"/>
      <polygon class="b" points="115.02 85.18 115.02 85.18 113.75 85.18 113.75 86.26 122.83 86.26 122.83 85.18 115.02 85.18"/>
    </g>
    <g>
      <polygon class="b" points="182.66 73.99 182.66 73.97 190.29 73.97 190.29 72.9 181.4 72.9 181.4 73.99 182.66 73.99"/>
      <polygon class="b" points="189.55 78.8 182.66 78.8 182.66 78.79 181.4 78.79 181.4 79.89 182.66 79.89 182.66 79.87 189.55 79.87 189.55 78.8"/>
      <polygon class="b" points="182.66 85.18 182.66 85.18 181.4 85.18 181.4 86.26 190.47 86.26 190.47 85.18 182.66 85.18"/>
    </g>
  </g>
  <path class="b" d="m61.22,90.05h-1.7c-.13-.03-.27-.07-.4-.07-1.7-.07-3.37-.32-5.02-.76-5.14-1.35-9.44-4.06-12.87-8.11-3.09-3.65-4.98-7.87-5.65-12.62-.1-.68-.17-1.36-.26-2.05,0-.96,0-1.92,0-2.89.03-.12.07-.24.08-.36.1-1.67.39-3.31.84-4.92,3.38-12.17,15.35-19.93,27.86-18.04,5.73.87,10.62,3.44,14.55,7.7,5.08,5.52,7.26,12.06,6.6,19.54-.31,3.51-1.34,6.82-3.13,9.85-4.37,7.34-10.79,11.57-19.31,12.56-.53.06-1.06.11-1.58.17Zm-3.86-3.4c6.81,1.14,16.67-1.52,22.01-10.8,5.12-8.91,3.34-20.1-4.22-27.02-7.6-6.95-18.88-7.71-27.35-1.79-4.18,2.92-7,6.86-8.47,11.74-.94,3.13-1.14,6.31-.63,9.61.16-.15.27-.25.37-.34,1.99-1.99,3.98-3.99,5.98-5.97.24-.24.25-.41.12-.72-.8-1.96-.6-3.82.75-5.45,1.36-1.63,3.16-2.2,5.23-1.72,2.94.68,4.64,3.75,3.73,6.62-.91,2.87-4.04,4.38-6.85,3.27-.33-.13-.52-.09-.77.16-2.45,2.47-4.91,4.93-7.39,7.38-.26.26-.27.47-.16.78.84,2.27,2.01,4.36,3.52,6.25.21.26.43.51.65.76.1-.08.14-.12.18-.16,5.66-5.66,11.33-11.33,17-16.99.18-.18.2-.31.08-.54-.66-1.16-.89-2.41-.74-3.72.4-3.42,3.39-5.8,6.76-5.52,3.2.26,6.14,3.11,5.64,6.99-.54,4.27-4.93,6.66-8.84,4.88-.32-.15-.48-.1-.72.13-5.59,5.6-11.18,11.19-16.78,16.79-.11.11-.2.22-.3.33.05.07.07.1.1.13,2.13,1.79,4.52,3.14,7.17,4.01.14.05.39-.05.5-.16,2.47-2.45,4.93-4.92,7.4-7.37.19-.19.16-.32.09-.55-.21-.64-.47-1.29-.51-1.95-.22-3.45,2.78-5.89,5.87-5.48,2.64.35,4.7,2.78,4.51,5.43-.26,3.59-3.69,5.83-7.08,4.58-.29-.11-.45-.05-.65.16-1.96,1.97-3.92,3.93-5.88,5.89-.1.1-.19.2-.32.35Zm12.38-27.95c0-1.73-1.42-3.13-3.14-3.12-1.72.01-3.13,1.43-3.12,3.14,0,1.75,1.42,3.14,3.17,3.14,1.71,0,3.1-1.42,3.09-3.16Zm-3.66,18.79c1.17,0,2.1-.92,2.11-2.08,0-1.14-.96-2.1-2.11-2.1-1.13,0-2.07.95-2.08,2.08,0,1.18.91,2.1,2.08,2.1Zm-16.15-20.34c-1.15,0-2.12.94-2.12,2.08,0,1.12,1,2.12,2.11,2.11,1.12,0,2.07-.95,2.1-2.08.03-1.13-.94-2.11-2.09-2.12Z"/>
</svg>