<?xml version="1.0" encoding="UTF-8"?>
<svg id="a" data-name="Layer 1" xmlns="http://www.w3.org/2000/svg" viewBox="0 0 250 130">
  <defs>
    <style>
      .b {
        fill: #fff;
      }
    </style>
  </defs>
  <path class="b" d="m66.76,39.86c3.82-.18,7.22,1.26,10.35,3.44.55.38,1.02.59,1.67.22,5.03-2.88,12.05-.12,14.5,5.24,1.11,2.43,1.87,4.96,1.45,7.68-.57,3.72-3.06,5.63-6.43,6.7-1.25.4-2.49.87-3.7,1.38-.38.16-.75.53-.93.9-3.91,8.06-9.11,15.27-14.78,22.16-.45.55-.89,1.1-1.36,1.64-1.05,1.21-1.72,1.24-2.74-.03-2.47-3.1-4.93-6.22-7.34-9.37-1.1-1.43-2.09-2.95-3.09-4.45-.34-.51-.69-.64-1.29-.44-1.23.41-2.4.8-3.32,1.83-.68.76-1.67.79-2.6.36-1.16-.53-1.94-1.42-2.1-2.7-.25-1.94.12-2.3,1.9-3.24,1.09-.58,2.01-1.49,2.92-2.34.17-.16.08-.79-.09-1.11-1.13-2.15-2.13-4.32-2.45-6.77-.77-5.87.99-10.86,4.99-15.15,3.89-4.18,8.71-6.05,14.45-5.97Zm5.14,10.2c-.29.18-.41.23-.49.31-2.86,2.61-5.73,5.21-8.57,7.83-.91.84-1.25,1.94-1.18,3.16.17,3.04,1.53,5.39,4.02,7.14,1.29.91,2.64,1.1,4.12.61,3.36-1.13,6.72-2.23,10.08-3.36.41-.14.77-.39,1.49-.75-5.81-3.44-8.34-8.72-9.46-14.93Zm6.21-.22c.05,4.8,3.97,9.79,8.56,10.83,2.03.46,3.75-.6,4.25-2.61.55-2.19.04-4.21-.98-6.13-1.6-2.99-3.7-5.43-7.17-6.29-2.17-.54-3.93.51-4.46,2.69-.12.49-.14,1.01-.2,1.52Zm-12.44,20.63c-3.68-2.2-5.38-5.4-5.61-9.72-2.06,2-3.95,3.79-5.81,5.63-.62.61-.69,1.41-.29,2.15.63,1.16,1.32,2.29,2.06,3.38.48.71,1.26,1.11,2.11.87,2.53-.72,5.03-1.53,7.55-2.3Zm-12.75-3.04c-1.6,1.51-3.02,2.79-4.37,4.16-.66.67-.58,1.53-.19,2.34.42.86,1.16,1.51,2.05,1.31,1.94-.44,3.83-1.11,5.96-1.74-1.85-1.72-3.13-3.46-3.46-6.06Z"/>
  <path class="b" d="m155.09,64.5v8.64c.32,0,.6,0,.88,0,4.16,0,8.32,0,12.48,0,.26,0,.52,0,.77.04.8.12,1.19.64,1.19,1.4,0,.77-.42,1.27-1.22,1.37-.25.03-.52.02-.77.02-4.74,0-9.48,0-14.23,0-1.59,0-1.99-.36-1.99-1.9-.01-7.35-.01-14.71,0-22.06,0-1.5.42-1.87,1.92-1.88,4.87,0,9.74-.03,14.61.03.52,0,1.21.35,1.49.77.22.32.11,1.13-.16,1.47-.28.35-.94.53-1.44.53-2.64.05-5.29.02-7.93.01-1.83,0-3.67,0-5.57,0v8.65c.62,0,1.23,0,1.83,0,2.58,0,5.16-.05,7.74.02.57.02,1.33.28,1.66.7.75.96-.08,2.16-1.42,2.17-2.9.02-5.81,0-8.71,0-.35,0-.7,0-1.13,0Z"/>
  <path class="b" d="m189.84,68.24c.33,2.36,2.33,4.29,4.81,4.75,1.81.34,3.43-.02,4.94-1.09.44-.31,1.08-.59,1.55-.51.42.08,1,.66,1.04,1.07.05.5-.25,1.22-.64,1.56-2.82,2.45-7.41,2.66-10.64.56-3.57-2.31-5.1-6.53-3.83-10.54,1.27-3.99,5.05-6.69,9.08-6.47,4.32.23,7.82,3.16,8.74,7.32,0,.03.02.06.02.09.3,2.78.21,3.33-2.62,3.29-3.84-.06-7.67-.02-11.51-.03-.31,0-.62,0-.95,0Zm11.99-2.95c-.2-2.56-3.13-4.86-6.06-4.82-2.9.04-5.72,2.34-5.89,4.82h11.95Z"/>
  <path class="b" d="m132.68,73.59c-1.73,1.34-3.51,2.22-5.61,2.41-4.85.44-9.31-3.29-9.8-8.26-.49-4.92,3.06-9.48,7.84-10.06,5.81-.7,10.55,3.48,10.57,9.32,0,2.32,0,4.64,0,6.96,0,1.39-.42,1.99-1.38,2.02-1.02.04-1.47-.54-1.55-1.97,0-.09-.03-.19-.06-.42Zm.07-6.79c-.01-3.51-2.87-6.35-6.35-6.31-3.52.03-6.26,2.86-6.23,6.42.03,3.38,2.87,6.22,6.25,6.24,3.45.02,6.35-2.88,6.34-6.35Z"/>
  <path class="b" d="m102.7,52.97v8.63h1.54c2.58,0,5.16,0,7.74,0,.26,0,.52-.01.77.02.93.12,1.47.71,1.43,1.52-.05.8-.64,1.36-1.57,1.37-1.9.02-3.81,0-5.71,0-1.38,0-2.76,0-4.25,0,0,1.25,0,2.4,0,3.55,0,2.06.04,4.13.02,6.19-.01,1.34-.89,2.06-1.96,1.66-.8-.3-.92-.98-.91-1.74,0-6.61,0-13.22,0-19.83,0-.87-.04-1.74,0-2.61.06-1.1.56-1.58,1.65-1.58,5-.01,10,0,15,0,.98,0,1.61.6,1.59,1.43-.02.82-.66,1.38-1.65,1.39-4.16.01-8.32,0-12.48,0-.38,0-.76,0-1.2,0Z"/>
  <path class="b" d="m177.1,70.73c1.04-2.48,1.96-4.7,2.89-6.91.71-1.69,1.41-3.39,2.13-5.07.44-1.02,1.22-1.38,2.06-1.01.78.35,1.04,1.17.63,2.13-3.11,7.45-6.23,14.9-9.35,22.35-.04.09-.08.18-.12.26-.45.9-1.18,1.23-1.96.89-.73-.31-1.05-1.07-.71-1.96.5-1.32.95-2.69,1.65-3.91,1.17-2.03,1.01-3.85,0-5.95-1.76-3.68-3.21-7.51-4.79-11.29-.1-.24-.2-.48-.27-.72-.23-.8.1-1.54.81-1.85.73-.31,1.48-.05,1.85.74.61,1.31,1.15,2.66,1.71,3.99,1.12,2.67,2.24,5.34,3.47,8.28Z"/>
  <path class="b" d="m140.17,60.02c.7-.46,1.27-.88,1.88-1.23,2.41-1.36,4.94-1.55,7.56-.7,1.11.36,1.6,1.12,1.32,2-.28.89-1.07,1.17-2.24.78-3.52-1.16-7.13.53-8.2,3.89-.23.72-.32,1.52-.34,2.28-.04,2.39-.01,4.77-.02,7.16,0,1.2-.48,1.77-1.43,1.77-.93,0-1.45-.6-1.45-1.78-.01-4.9,0-9.81,0-14.71,0-.29.04-.58.11-.86.19-.73.73-1.06,1.45-1.01.73.04,1.19.47,1.31,1.2.06.35.04.71.06,1.2Z"/>
  <path class="b" d="m79.9,51.27c3.12,1.61,6.18,3.17,9.2,4.81.29.16.33.76.49,1.16-.37-.02-.8.07-1.1-.08-2.53-1.27-5.04-2.58-7.55-3.89-.77-.4-1.27-.94-1.03-2Z"/>
  <path class="b" d="m87.75,50.51c-.81.26-5.72-2.1-6.68-3.18,2.39.62,4.45,1.93,6.68,3.18Z"/>
</svg>