<?xml version="1.0" encoding="UTF-8"?>
<svg id="a" data-name="Layer 1" xmlns="http://www.w3.org/2000/svg" viewBox="0 0 250 130">
  <defs>
    <style>
      .b {
        fill: #fff;
      }

      .c {
        fill: #d3d3d3;
      }
    </style>
  </defs>
  <circle class="c" cx="63.9" cy="71.87" r="12.15"/>
  <path class="b" d="m76.05,73.33s.13-2.77-.33-4.27-.53-1.68-.53-1.68c0,0-3.93-3.11-9.03-1.52s-7.47,6.66-6.64,10.32,3.35,5.66,6.27,6.64,7.83-.56,8.2-4.96c.36-4.41-2.96-6.27-4.6-6.36s-3.71.16-4.74,2.09.12,4.01,1.31,4.38c.96.3,2.05.3,2.77-.32s.75-1.26.75-1.26c0,0-.53,1.12-1.51,1.07s-1.71-.5-1.94-1.76.89-2.23,1.97-2.3,2.66.41,3.06,1.57c.36,1.04.86,3.53-1.84,4.7s-5.48-.95-6-2.64-.67-4.05,1.88-6.28c2.55-2.23,7.1-1.86,9.85,1.12.52.57,1.09,1.46,1.09,1.46Z"/>
  <path class="b" d="m81.47,60.65c.82-1.84-.12-2.74-.82-2.74s-1.94,0-3.06,2.13c-.91,1.74-1.32,3.08-1.54,4.16s-.3,2.62.75,2.19,3.85-3.9,4.67-5.73Z"/>
  <path class="b" d="m70.09,61.09c0,2.89-.84,3.1-1.4,2.81s-.96-1.03-2.17-4.33-2.65-7.97-2.86-10.56,1.57-3.35,2.7-2.92,2.03,2.08,2.65,4.38c.55,2.03,1.09,6.75,1.09,10.62Z"/>
  <path class="b" d="m63.51,65.31c.28-.07.71-.56,0-2.9s-2.65-5.78-3.7-7.72-2.44-3.93-3.5-5.06-2.48-1.87-3.49-.99-.74,2.8,0,4.29,4.33,6.24,5.3,7.36,2.68,3.06,3.29,3.7,1.5,1.47,2.1,1.31Z"/>
  <path class="b" d="m57.85,67.35c-1.84-2.26-5.84-6.82-7.39-7.92s-2.73-1.9-3.94-1.49-1.49,1.75-.81,3.26c.68,1.51,3.56,3.72,5.55,4.94s4.4,3.11,5.18,3.63,1.25.7,1.65.72,1.95-.46-.25-3.15Z"/>
  <path class="b" d="m54.92,73.41s-4.21-2.47-5.95-2.9-2.78-.16-3.22.48-.4,2.29,2.25,3.39,5.38,1.43,7.05,1.93,2.26.47,2.72.1.33-1.05-.55-1.64-2.29-1.35-2.29-1.35Z"/>
  <g>
    <path class="b" d="m80.6,80.6l2.23-3.07c1.86,1.57,4.16,2.45,6.56,2.45,1.9,0,3.26-.58,4.29-1.72.9-.99,1.4-2.19,1.83-3.91l.3-1.17c-1.86,1.86-3.53,2.92-6.03,2.92-3.46,0-6.76-2.48-6.76-6.97,0-3.21,1.2-5.99,3.06-8.03,1.83-2.01,4.23-3.14,6.66-3.14,3.33,0,4.83,1.93,5.79,3.87l.83-3.47h4.03l-3.86,15.92c-.9,3.5-1.63,5.07-3,6.57-1.63,1.79-3.76,2.7-6.92,2.7-3.46,0-6.76-1.1-9.02-2.96Zm15.01-10.11c1.17-1.28,1.8-2.74,1.8-4.45,0-2.48-1.63-4.31-4.26-4.31-1.56,0-3,.73-4.09,1.9-1.17,1.28-1.83,2.88-1.83,4.75,0,2.77,1.8,4.13,4.06,4.13,1.63,0,3.16-.73,4.33-2.01Z"/>
    <path class="b" d="m99.78,69.28c0-3.03,1.13-5.8,3.1-7.96,1.86-2.04,4.36-3.36,7.16-3.36,5.03,0,8.26,3.72,8.26,8.83,0,2.96-1.13,5.84-3.1,7.92-1.86,2.04-4.36,3.36-7.16,3.36-5.03,0-8.26-3.72-8.26-8.8Zm12.38,3.1c1.36-1.46,2.13-3.61,2.13-5.48,0-3.32-1.83-5.11-4.49-5.11-1.5,0-2.86.73-3.9,1.86-1.37,1.46-2.13,3.61-2.13,5.48,0,3.32,1.83,5.11,4.49,5.11,1.5,0,2.86-.73,3.9-1.86Z"/>
  </g>
  <g>
    <path class="b" d="m114.21,72.65l3.49-4.19c2.46,2,4.95,3.26,8.03,3.26,2.46,0,3.88-.96,3.88-2.53v-.08c0-1.5-.92-2.3-5.42-3.42-5.45-1.34-8.91-2.92-8.91-8.22v-.08c0-4.88,3.88-8.1,9.41-8.1,3.96,0,7.22,1.23,9.99,3.42l-3.07,4.45c-2.42-1.65-4.69-2.65-6.99-2.65s-3.46,1-3.46,2.34v.08c0,1.8,1.15,2.3,5.8,3.53,5.45,1.46,8.53,3.38,8.53,8.06v.08c0,5.34-4.07,8.33-9.87,8.33-4.11,0-8.18-1.38-11.41-4.3Z"/>
    <path class="b" d="m137.1,55.14h-8.18v-5.45h22.27v5.45h-8.18v21.43h-5.91v-21.43Z"/>
    <path class="b" d="m144.16,63.21v-.08c0-7.64,6.03-13.9,14.32-13.9s14.25,6.18,14.25,13.83v.08c0,7.64-6.03,13.9-14.32,13.9s-14.25-6.18-14.25-13.83Zm22.39,0v-.08c0-4.61-3.38-8.45-8.14-8.45s-8.06,3.76-8.06,8.37v.08c0,4.61,3.38,8.45,8.14,8.45s8.06-3.76,8.06-8.37Z"/>
    <path class="b" d="m168.78,49.69h10.98c6.41,0,10.29,3.76,10.29,9.29v.08c0,6.26-4.84,9.45-10.87,9.45h-4.49v8.06h-5.91v-26.88Zm10.6,13.56c2.96,0,4.69-1.77,4.69-4.07v-.08c0-2.65-1.84-4.07-4.8-4.07h-4.57v8.22h4.69Z"/>
    <path class="b" d="m183.37,72.65l3.49-4.19c2.46,2,4.95,3.26,8.03,3.26,2.46,0,3.88-.96,3.88-2.53v-.08c0-1.5-.92-2.3-5.42-3.42-5.45-1.34-8.91-2.92-8.91-8.22v-.08c0-4.88,3.88-8.1,9.41-8.1,3.96,0,7.22,1.23,9.99,3.42l-3.07,4.45c-2.42-1.65-4.69-2.65-6.99-2.65s-3.46,1-3.46,2.34v.08c0,1.8,1.15,2.3,5.8,3.53,5.45,1.46,8.53,3.38,8.53,8.06v.08c0,5.34-4.07,8.33-9.87,8.33-4.11,0-8.18-1.38-11.41-4.3Z"/>
  </g>
</svg>