<?xml version="1.0" encoding="UTF-8"?>
<svg id="a" data-name="Layer 1" xmlns="http://www.w3.org/2000/svg" viewBox="0 0 250 130">
  <defs>
    <style>
      .b {
        fill: #fff;
        fill-rule: evenodd;
      }
    </style>
  </defs>
  <path class="b" d="m132.66,58.08c-3.34-.65-6.74-.98-9.13-.98-8.44,0-11.48,3.51-11.48,9.65v5.56c0,5.57,2.08,9.36,12.07,9.36,2.65,0,5.92-.24,9.13-.88v-4.97c-2.51.47-4.85.59-8.54.59-3.96,0-6.18-1.92-6.18-5.27v-3.22c0-3.54,1.76-5.56,5.3-5.56.59,0,1.74,0,2.36.16v3.64h6.48v-8.09Zm-27.09,8.09c0-6.61-3.03-9.07-8.54-9.07-2.09,0-4.11.58-6.48,1.76l-.59-1.17h-8.54v5.27h3.53v13.46h-2.94v5.27h12.37v-5.27h-2.94v-13.44c1.33-.47,2.65-.6,4.17-.6,3.8,0,3.48,3.3,3.48,5.57v13.74h10.01v-5.27h-3.53v-10.24Zm-30.62,10.24h3.53v5.27h-13.55v-5.27h3.53v-22.82h-2.94v-5.27h12.37v5.27h-2.94v22.82Z"/>
  <path class="b" d="m179.18,59.44c0-2.43-.88-5.85-5.01-5.85-4.34,0-6.35,4.19-5.01,8.78h-5.8c-.44-1.31-.7-4.97.7-7.88,1.55-3.21,5.2-6.16,10.03-6.16h-22.01l-12.37,18.43v7.9h13.25v-5.27h-7.07l10.31-15.8h.29v28.08h5.59c0-10.38,6.08-13.74,11.78-16.12,3.13-1.31,5.3-2.92,5.3-6.12m5.89-.29v17.26h-14.72c0-2.93,2.75-3.42,6.18-5.27,4.4-2.37,8.54-5.27,8.54-11.99"/>
</svg>