<?xml version="1.0" encoding="UTF-8"?>
<svg id="a" data-name="Layer 1" xmlns="http://www.w3.org/2000/svg" viewBox="0 0 250 130">
  <defs>
    <style>
      .b {
        fill: #fff;
      }
    </style>
  </defs>
  <path class="b" d="m75.56,48.34c-.32-1.91-2.15-3.74-4.07-4.06h0c-5.72-.92-11.5-1.2-17.26-.82-2.43.16-4.85.43-7.27.82-1.92.32-3.75,2.14-4.07,4.07-.27,1.67-.48,3.36-.64,5.05-.61,6.49-.39,13.02.65,19.49.32,1.91,2.14,3.74,4.07,4.06,4.06.66,8.16.98,12.26.98,1.99,0,3.98-.08,5.96-.23,2.11-.16,4.21-.41,6.31-.75,1.92-.32,3.75-2.14,4.07-4.07.46-2.87.76-5.76.9-8.65.25-5.3-.05-10.62-.9-15.88Zm-23.56,21.66c-1.2,0-2.17-.97-2.17-2.17s.97-2.17,2.17-2.17,2.17.97,2.17,2.17-.97,2.17-2.17,2.17Zm7.22,0c-1.2,0-2.17-.97-2.17-2.17s.97-2.17,2.17-2.17,2.17.97,2.17,2.17-.97,2.17-2.17,2.17Zm0-7.22c-1.2,0-2.17-.97-2.17-2.17s.97-2.17,2.17-2.17,2.17.97,2.17,2.17-.97,2.17-2.17,2.17Zm.36-7.94h-7.94c-1,0-1.8-.81-1.8-1.8s.81-1.8,1.8-1.8h7.94c1,0,1.8.81,1.8,1.8s-.81,1.8-1.8,1.8Zm6.86,15.16c-1.2,0-2.17-.97-2.17-2.17s.97-2.17,2.17-2.17,2.17.97,2.17,2.17-.97,2.17-2.17,2.17Zm0-7.22c-1.2,0-2.17-.97-2.17-2.17s.97-2.17,2.17-2.17,2.17.97,2.17,2.17-.97,2.17-2.17,2.17Zm0-7.22c-1.2,0-2.17-.97-2.17-2.17s.97-2.17,2.17-2.17,2.17.97,2.17,2.17-.97,2.17-2.17,2.17Z"/>
  <path class="b" d="m88.36,47.27c.93,0,1.4.34,1.4,1.01v1.19c0,.67-.47,1.01-1.4,1.01h-2.03c-.93,0-1.4-.34-1.4-1.01v-1.19c0-.67.47-1.01,1.4-1.01h2.03Zm1.3,5.89v17.64h-4.67v-17.64h4.67Z"/>
  <path class="b" d="m96.77,53.16l.54,3.5.38.46v13.68h-4.7v-17.64h3.78Zm7.15-.46c2.96,0,4.45,1.63,4.45,4.89v13.22h-4.7v-11.57c0-.79-.13-1.33-.38-1.63-.25-.3-.69-.45-1.3-.45-.68,0-1.38.15-2.1.45-.72.3-1.61.76-2.67,1.37l-.22-2.96c1.12-1.07,2.27-1.89,3.45-2.46,1.18-.57,2.33-.86,3.48-.86Z"/>
  <path class="b" d="m117.41,52.7c.76,0,1.59.03,2.48.09.89.06,1.76.14,2.6.23.85.1,1.6.21,2.25.36l-.32,3.29c-1.02-.02-2.04-.04-3.06-.05-1.03-.01-2.03-.02-3-.02-.83-.02-1.46-.01-1.91.04-.44.05-.76.16-.94.34-.18.18-.27.49-.27.95,0,.52.16.88.48,1.05s.85.38,1.59.59l4.1,1.11c1.31.38,2.29.95,2.92,1.7.64.75.95,1.88.95,3.38s-.24,2.61-.73,3.39c-.49.79-1.26,1.33-2.32,1.63-1.06.3-2.42.45-4.1.45-.66,0-1.63-.04-2.92-.11-1.29-.07-2.71-.25-4.26-.54l.32-3.29c.38.02.87.04,1.46.05.59.01,1.24.02,1.94.02h2.1c1.08,0,1.91-.03,2.48-.09.57-.06.96-.2,1.17-.41.21-.21.32-.54.32-.96,0-.52-.18-.88-.54-1.07-.36-.19-.93-.39-1.71-.61l-3.97-1.11c-1-.31-1.77-.7-2.32-1.18-.55-.48-.94-1.06-1.16-1.75-.22-.69-.33-1.51-.33-2.46,0-1.21.22-2.18.65-2.91.43-.73,1.14-1.26,2.13-1.59.98-.33,2.29-.5,3.92-.5Z"/>
  <path class="b" d="m138.6,52.7c-1.16,0-2.35.3-3.56.91-.99.5-1.68,1.18-2.64,2.04,0-.7-.03-9.84-.03-9.84l-4.7.49v24.51h4.7v-12.11c.85-.5,1.58-.87,2.19-1.11.72-.29,1.42-.43,2.1-.43.61,0,1.04.15,1.29.45.24.3.37.84.37,1.63v11.57h4.73v-13.22c0-3.26-1.48-4.89-4.45-4.89Z"/>
  <path class="b" d="m153.59,52.7c1.97,0,3.55.3,4.73.91,1.19.61,2.04,1.59,2.56,2.95.52,1.36.78,3.18.78,5.46s-.26,4.04-.78,5.39c-.52,1.36-1.37,2.33-2.56,2.93-1.19.59-2.76.89-4.73.89s-3.52-.3-4.72-.89c-1.2-.6-2.06-1.57-2.59-2.93-.53-1.36-.79-3.15-.79-5.39s.26-4.11.79-5.46c.53-1.36,1.39-2.34,2.59-2.95,1.2-.61,2.77-.91,4.72-.91Zm0,3.86c-.8,0-1.44.16-1.91.46-.47.31-.79.86-.98,1.64s-.29,1.91-.29,3.36.1,2.54.29,3.32c.19.79.52,1.33.98,1.63.47.3,1.1.45,1.91.45s1.44-.15,1.91-.45c.47-.3.79-.84.98-1.63.19-.79.29-1.89.29-3.32s-.1-2.57-.29-3.36c-.19-.79-.52-1.33-.98-1.64-.47-.31-1.1-.46-1.91-.46Z"/>
  <path class="b" d="m167.91,53.16l.57,3.5.44.46v13.68h-4.7v-17.64h3.68Zm7.65-.46l-.44,4.89h-1.3c-.74,0-1.51.12-2.32.36-.8.24-1.82.6-3.05,1.07l-.32-2.96c1.1-1.1,2.21-1.93,3.33-2.5,1.12-.57,2.21-.86,3.27-.86h.83Z"/>
  <path class="b" d="m189.7,53.16v3.46h-11.85v-3.46h11.85Zm-4.38-4.89v16.89c0,.64.13,1.1.4,1.37.26.27.7.41,1.32.41h2.03l.51,3.57c-.38.14-.85.27-1.4.38-.55.11-1.1.19-1.65.25-.55.06-1.02.09-1.4.09-1.42,0-2.52-.43-3.32-1.29-.79-.86-1.19-2.06-1.19-3.61l-.02-13.35.46-4.73h4.26Z"/>
  <path class="b" d="m200.11,52.7c.76,0,1.59.03,2.48.09.89.06,1.76.14,2.6.23.85.1,1.6.21,2.25.36l-.32,3.29c-1.02-.02-2.04-.04-3.06-.05-1.03-.01-2.03-.02-3-.02-.83-.02-1.46-.01-1.91.04-.44.05-.76.16-.94.34-.18.18-.27.49-.27.95,0,.52.16.88.48,1.05s.85.38,1.59.59l4.1,1.11c1.31.38,2.29.95,2.92,1.7.64.75.95,1.88.95,3.38s-.24,2.61-.73,3.39c-.49.79-1.26,1.33-2.32,1.63-1.06.3-2.42.45-4.1.45-.66,0-1.63-.04-2.92-.11-1.29-.07-2.71-.25-4.26-.54l.32-3.29c.38.02.87.04,1.46.05.59.01,1.24.02,1.94.02h2.1c1.08,0,1.91-.03,2.48-.09.57-.06.96-.2,1.17-.41.21-.21.32-.54.32-.96,0-.52-.18-.88-.54-1.07-.36-.19-.93-.39-1.71-.61l-3.97-1.11c-1-.31-1.77-.7-2.32-1.18-.55-.48-.94-1.06-1.16-1.75-.22-.69-.33-1.51-.33-2.46,0-1.21.22-2.18.65-2.91.43-.73,1.14-1.26,2.13-1.59.98-.33,2.29-.5,3.92-.5Z"/>
  <g>
    <path class="b" d="m148.27,84.37c-.14,0-.31,0-.52,0-.2,0-.41-.01-.63-.02-.22,0-.41-.02-.59-.04s-.32-.03-.41-.05l.06-.35h2.21c.36,0,.66-.06.89-.18.23-.12.36-.34.41-.65l.07-.41s.01-.06.01-.09v-.08c0-.41-.26-.62-.78-.62h-1.05c-.3,0-.55-.03-.75-.09s-.35-.15-.45-.28c-.1-.13-.15-.29-.15-.5,0-.06,0-.13,0-.2,0-.07.02-.14.03-.22l.07-.45c.05-.26.14-.49.27-.68.13-.19.32-.34.58-.45.25-.11.58-.16,1-.16.18,0,.39,0,.64.02.25.01.5.03.75.05.25.02.46.04.62.06l-.07.35h-2.05c-.38,0-.67.07-.85.21s-.29.35-.34.64l-.07.37c-.01.09-.02.16-.03.21s0,.1,0,.14c0,.18.07.3.21.36.14.07.37.1.69.1h1.06c.36,0,.66.09.89.26.23.17.34.42.34.75,0,.05,0,.09,0,.14,0,.05,0,.09-.02.14l-.08.5c-.07.44-.28.75-.63.93-.34.18-.79.27-1.34.27Z"/>
    <path class="b" d="m153.07,84.31c-.43,0-.74-.1-.96-.29s-.32-.47-.32-.83c0-.15,0-.29.03-.43.02-.14.04-.28.07-.42l.5-2.92h-.87l.06-.38.88-.11.35-1.51h.45l-.24,1.51h1.63l-.07.5h-1.64l-.47,2.92c-.01.11-.03.23-.05.36-.02.13-.03.26-.03.38,0,.24.06.42.18.54.12.12.31.19.57.21l.65.06-.07.43h-.64Z"/>
    <path class="b" d="m156.53,84.37c-.3,0-.58-.06-.83-.19-.25-.13-.45-.32-.59-.59-.14-.27-.21-.61-.21-1.04,0-.17.01-.35.03-.53.02-.19.04-.35.07-.49.09-.61.25-1.12.46-1.51.21-.39.51-.69.88-.88s.84-.29,1.41-.29c.22,0,.46.02.71.06s.49.1.71.19c.23.08.42.2.57.34l-.77,4.87h-.49v-.59c-.1.07-.26.15-.48.25-.22.1-.46.19-.72.27s-.52.12-.77.12Zm.19-.5c.35,0,.67-.05.96-.16.29-.11.58-.23.86-.37l.58-3.65c-.12-.07-.29-.14-.54-.22-.24-.08-.53-.12-.87-.12-.47,0-.84.08-1.12.24-.28.16-.5.41-.66.74-.16.33-.28.77-.36,1.3-.03.18-.05.34-.06.47-.01.13-.02.26-.02.37,0,.47.11.82.34,1.05.23.23.52.34.9.34Z"/>
    <path class="b" d="m160.48,86.7v-.46c.3-.07.63-.26.97-.55s.67-.76.97-1.4c-.18-.02-.35-.06-.51-.13-.15-.06-.29-.18-.4-.34-.11-.17-.2-.41-.26-.73l-.74-4.19h.61l.67,4.06c.04.22.1.39.19.51.08.12.19.19.3.23.12.04.24.07.36.08l1.83-3.96c.06-.14.12-.3.19-.48.06-.18.1-.35.12-.53h.5c0,.21-.02.42-.07.64-.04.22-.13.45-.25.7l-1.96,4.1c-.27.57-.54,1.02-.8,1.36s-.53.59-.81.75c-.28.17-.58.27-.9.32Z"/>
    <path class="b" d="m167.82,84.31l.85-5.39h.59l-.85,5.39h-.59Zm1.11-6.41s-.07-.01-.1-.05c-.02-.03-.03-.07-.03-.11l.11-.72c.02-.1.08-.15.17-.15h.39s.08.01.1.04c.02.03.02.06.02.11l-.11.72c-.01.1-.07.15-.16.15h-.39Z"/>
    <path class="b" d="m169.67,84.31l.85-5.39h.45l.03.61c.31-.2.65-.36,1.03-.49.37-.13.76-.2,1.17-.2.34,0,.61.06.81.17.21.12.35.27.45.46.09.19.14.41.14.65,0,.08,0,.18-.01.29-.01.11-.04.31-.08.6l-.53,3.3h-.59l.52-3.28c.03-.23.06-.39.07-.48.01-.09.02-.17.02-.23,0-.27-.08-.5-.23-.68-.16-.19-.43-.28-.83-.28s-.74.05-1.03.16c-.3.1-.62.25-.96.45l-.69,4.34h-.59Z"/>
    <path class="b" d="m175.64,84.31l.77-4.89h-.85l.07-.37.86-.13.14-.84c.03-.17.07-.34.12-.52.05-.18.13-.35.23-.51s.26-.29.45-.38c.2-.09.45-.14.77-.14.2,0,.4,0,.61.02.21.01.4.03.57.04l-.07.43h-1.06c-.26,0-.45.05-.59.14-.14.09-.24.23-.3.4-.06.18-.12.38-.16.63l-.12.73h1.74l-.08.51h-1.74l-.77,4.89h-.59Z"/>
    <path class="b" d="m180.87,84.37c-.38,0-.72-.06-1.02-.18s-.52-.31-.68-.57c-.16-.26-.24-.62-.24-1.06,0-.16,0-.32.02-.48.01-.16.03-.33.06-.5.09-.54.2-.98.34-1.34s.32-.63.54-.83.48-.35.78-.43c.3-.08.66-.13,1.07-.13.48,0,.86.07,1.14.21.28.14.49.35.61.63.12.28.19.62.19,1.03,0,.16,0,.33-.03.51s-.04.37-.07.56c-.1.65-.26,1.17-.47,1.55-.21.38-.5.64-.86.79-.36.15-.82.23-1.38.23Zm.08-.5c.29,0,.55-.03.77-.09.23-.06.42-.16.58-.31.16-.15.3-.37.41-.66.11-.29.21-.66.27-1.12.03-.2.06-.37.07-.53.01-.16.02-.31.02-.44,0-.5-.11-.85-.33-1.06s-.59-.31-1.11-.31c-.31,0-.58.03-.8.1s-.42.19-.58.35c-.16.17-.29.41-.4.71-.11.31-.2.7-.28,1.18-.03.16-.05.31-.06.45-.01.14-.02.27-.02.39,0,.37.06.65.19.84.13.19.3.32.51.39s.47.1.75.1Z"/>
    <path class="b" d="m184.27,84.31l.85-5.39h.49v.65c.22-.18.48-.35.76-.49.29-.14.6-.22.95-.22.13,0,.26,0,.38.02.12,0,.23.03.31.07l-.09.59c-.11-.02-.22-.04-.34-.05-.12-.01-.25-.02-.39-.02-.32,0-.62.06-.9.17-.28.11-.53.25-.76.39l-.68,4.29h-.59Z"/>
    <path class="b" d="m188,84.31l.85-5.39h.45l.03.61c.31-.19.65-.35,1.02-.49.37-.13.76-.2,1.17-.2s.71.07.91.22c.2.15.35.35.45.6.33-.25.7-.45,1.11-.6s.82-.22,1.22-.22c.45,0,.8.1,1.05.31.25.21.37.54.37,1,0,.07,0,.16-.01.26s-.02.18-.04.26l-.58,3.64h-.59l.58-3.63c.01-.05.02-.11.03-.17,0-.06,0-.12,0-.17,0-.65-.36-.97-1.07-.97-.4,0-.77.06-1.09.19-.32.13-.65.3-.99.51.01.09.02.19.02.3s-.02.25-.05.4l-.56,3.54h-.59l.56-3.55c.01-.09.03-.16.04-.22.01-.06.02-.13.02-.21,0-.28-.08-.51-.24-.69-.16-.18-.43-.27-.83-.27s-.74.06-1.04.17-.61.26-.96.44l-.69,4.34h-.59Z"/>
    <path class="b" d="m199.67,84.37c-.52,0-.94-.07-1.27-.21-.33-.14-.57-.35-.71-.62-.15-.28-.22-.62-.22-1.02,0-.21.01-.41.03-.61.02-.2.04-.38.07-.57.08-.53.23-.99.44-1.36s.51-.66.88-.86c.37-.2.84-.3,1.4-.3.29,0,.55.03.78.08.23.05.43.13.59.24s.29.26.38.45c.09.19.14.41.14.67,0,.35-.07.64-.22.88-.14.23-.34.41-.58.54-.24.13-.52.21-.83.26-.31.05-.63.08-.95.08s-.64-.02-.91-.05c-.27-.03-.47-.07-.61-.11-.01.12-.02.23-.03.35,0,.12-.01.23-.01.35,0,.47.14.82.42,1.03.28.22.74.32,1.39.32h1.61l-.06.36c-.2.02-.45.04-.76.07-.31.02-.63.04-.96.04Zm-.31-2.74c.45,0,.84-.04,1.17-.11s.6-.21.79-.39c.19-.19.29-.46.29-.8,0-.37-.11-.63-.34-.79-.23-.15-.57-.23-1.03-.23s-.85.09-1.13.26c-.28.18-.5.43-.66.75-.16.33-.27.73-.33,1.2.16.03.35.05.57.08.22.02.44.04.66.04Z"/>
    <path class="b" d="m204.38,84.37c-.46,0-.84-.15-1.14-.45-.3-.3-.45-.74-.45-1.33,0-.37.03-.74.1-1.09.1-.54.24-1.01.42-1.4.18-.39.45-.7.8-.92.36-.22.85-.33,1.48-.33.28,0,.55.03.79.08.24.05.48.13.71.25l.41-2.59h.59l-1.22,7.72h-.49v-.59c-.16.1-.34.2-.55.3-.21.1-.44.18-.69.25-.25.07-.5.1-.76.1Zm.18-.5c.34,0,.67-.05.98-.16.31-.1.61-.23.89-.38l.58-3.65c-.2-.12-.41-.2-.64-.25s-.48-.08-.78-.08c-.47,0-.85.08-1.12.24-.28.16-.49.41-.64.74-.15.33-.27.76-.36,1.29-.03.16-.05.31-.07.45-.02.14-.03.28-.03.4,0,.34.05.61.16.81.11.2.25.35.43.44s.38.14.59.14Z"/>
  </g>
</svg>