<?xml version="1.0" encoding="UTF-8"?>
<svg id="a" data-name="Layer 1" xmlns="http://www.w3.org/2000/svg" xmlns:xlink="http://www.w3.org/1999/xlink" viewBox="0 0 250 130">
  <defs>
    <style>
      .c {
        fill: none;
      }

      .d {
        fill: #fff;
      }

      .e {
        clip-path: url(#b);
      }
    </style>
    <clipPath id="b">
      <rect class="c" x="46.88" y="47.36" width="156.23" height="35.28"/>
    </clipPath>
  </defs>
  <g class="e">
    <g>
      <path class="d" d="m62.47,82.23v-34.13h10.28v19.43c0,8.16-3.46,13.28-10.28,14.7Z"/>
      <path class="d" d="m109.87,65.54c0,11.08-6.15,17.09-16.52,17.09s-16.52-6.01-16.52-17.09v-17.44h10.28v17.79c0,4.62,2.37,7.4,6.25,7.4s6.25-2.78,6.25-7.4v-17.79h10.28v17.44Z"/>
      <path class="d" d="m146.75,81.89h-7.91l-14.3-15.95v15.95h-10.13v-33.78h7.91l14.26,16.25v-16.25h10.18v33.78Z"/>
      <path class="d" d="m161.91,81.89h-10.13v-33.78h10.13v33.78Z"/>
      <path class="d" d="m203.12,65c0,9.99-7.66,17.64-18.49,17.64s-18.49-7.65-18.49-17.64,7.66-17.64,18.49-17.64,18.49,7.65,18.49,17.64h0Zm-10.33,0c0-4.42-3.37-8.25-8.16-8.25s-8.16,3.83-8.16,8.25,3.38,8.25,8.16,8.25,8.16-3.83,8.16-8.25Z"/>
      <path class="d" d="m53.36,81.73c3.58,0,6.48-2.82,6.48-6.29s-2.9-6.29-6.48-6.29-6.48,2.82-6.48,6.29,2.9,6.29,6.48,6.29Z"/>
    </g>
  </g>
</svg>