<?xml version="1.0" encoding="UTF-8"?>
<svg id="a" data-name="Layer 1" xmlns="http://www.w3.org/2000/svg" viewBox="0 0 250 130">
  <defs>
    <style>
      .b {
        fill: #fff;
      }
    </style>
  </defs>
  <g>
    <path class="b" d="m164.79,53.57c.85,0,1.67-.02,2.48.02.15,0,.32.19.44.33,4.03,4.99,8.05,9.98,12.08,14.97.46.58.93,1.15,1.4,1.72.04,0,.07-.02.11-.03,0-.16,0-.31,0-.47,0-5.32,0-10.63,0-15.95q0-.59.61-.59c.71,0,1.41.02,2.12,0,.37-.01.5.09.5.48-.02,1.64,0,3.29,0,4.93,0,5.63,0,11.27,0,16.9,0,.18,0,.35,0,.58-.88,0-1.72.01-2.56-.01-.12,0-.26-.19-.36-.31-2.68-3.31-5.35-6.62-8.02-9.94-1.73-2.14-3.45-4.28-5.18-6.42-.09-.11-.19-.22-.38-.31v16.97h-3.22v-22.86Z"/>
    <path class="b" d="m202,76.73c-3.87-.06-7.1-1.23-9.58-4.05-2.18-2.49-3-5.43-2.76-8.71.35-4.9,3.85-9.56,10-10.5,3.98-.61,7.63.22,10.69,2.98,2.11,1.9,3.27,4.31,3.57,7.12.36,3.32-.39,6.34-2.55,8.93-2.03,2.43-4.68,3.72-7.8,4.11-.58.07-1.16.09-1.57.12Zm.08-2.86c.33-.03.93-.05,1.51-.16,7.25-1.37,8.97-9.47,5.42-14.14-2.61-3.45-7.78-4.45-11.72-2.3-4.01,2.19-5.38,7.01-3.85,11.07,1.28,3.4,4.49,5.5,8.64,5.53Z"/>
    <path class="b" d="m120.49,68.78c1.8,2.55,3.59,5.07,5.43,7.67-.76,0-1.44-.07-2.1.02-1.05.14-1.67-.26-2.24-1.14-1.23-1.91-2.59-3.75-3.92-5.6-.1-.14-.31-.3-.48-.3-1.7,0-3.4.03-5.1.05-.47,0-.94.02-1.41,0-.34-.02-.42.11-.42.43.01,2,0,4,0,6.01,0,.16,0,.33,0,.52h-3.22v-.46c0-7.29,0-14.58,0-21.87,0-.41.09-.54.52-.54,3.21.03,6.42,0,9.63.07,1.82.04,3.55.52,5.1,1.53,2.08,1.35,3.1,3.32,3.25,5.75.08,1.28-.05,2.54-.54,3.74-.76,1.88-2.15,3.14-4,3.93-.15.06-.3.13-.51.21Zm-10.23-7.22c0,1.56.01,3.12,0,4.68,0,.39.09.53.5.52,1.72-.02,3.43.02,5.15-.02.88-.02,1.77-.12,2.62-.32,1.66-.4,2.98-1.32,3.5-3.02.22-.74.31-1.55.28-2.32-.08-1.88-.98-3.27-2.74-4.05-.88-.4-1.81-.61-2.77-.63-2.03-.04-4.07-.03-6.1-.05-.35,0-.44.12-.44.45.02,1.59,0,3.18,0,4.76Z"/>
    <path class="b" d="m134.17,76.43h-3.22v-.51c0-7.26,0-14.53,0-21.79q0-.56.56-.57c.73,0,1.47.02,2.2,0,.36-.01.46.1.46.47-.01,3.92,0,7.84,0,11.77v.61c.19-.18.31-.29.42-.4,3.92-4.02,7.84-8.04,11.75-12.07.26-.27.52-.39.9-.38.84.03,1.69,0,2.53,0,.15,0,.3,0,.57,0-.18.21-.28.33-.38.44-3,3.16-6,6.31-9.01,9.46-.3.32-.31.5-.03.84,3.26,3.91,6.5,7.83,9.74,11.75.09.11.17.21.3.38-.17.02-.28.03-.39.03-.98,0-1.97,0-2.95,0-.29,0-.48-.1-.67-.32-2.7-3.14-5.42-6.28-8.13-9.42-.12-.14-.25-.28-.4-.45-.12.11-.23.2-.32.29-1.22,1.24-2.46,2.47-3.66,3.73-.15.16-.26.43-.26.64-.02,1.67-.01,3.34-.01,5.01,0,.15,0,.3,0,.48Z"/>
    <path class="b" d="m62.56,66.38c.17-.15.26-.23.35-.31,3.96-4.06,7.91-8.12,11.86-12.18.22-.23.44-.33.76-.32.9.02,1.8,0,2.7,0,.13,0,.26.02.5.03-1.68,1.77-3.3,3.47-4.92,5.17-1.61,1.69-3.22,3.38-4.85,5.1,3.46,4.18,6.9,8.34,10.39,12.55-.16.02-.26.04-.36.04-1.01,0-2.02,0-3.03,0-.26,0-.43-.09-.6-.28-2.76-3.21-5.52-6.4-8.29-9.61-.08-.09-.17-.18-.27-.29-.1.09-.2.16-.28.25-1.23,1.25-2.47,2.49-3.69,3.76-.15.16-.25.43-.26.64-.02,1.67-.01,3.34-.01,5.01v.51c-.58,0-1.13,0-1.68,0-.4,0-.8-.01-1.2,0-.28.01-.38-.1-.35-.36,0-.1,0-.19,0-.29,0-7.19,0-14.39,0-21.58q0-.66.68-.66c.71,0,1.41.02,2.12,0,.35-.01.44.11.44.45-.01,3.92,0,7.84,0,11.76v.61Z"/>
    <path class="b" d="m233.71,55.3c-.36.87-.7,1.69-1.06,2.56-.15-.08-.28-.15-.41-.22-2.63-1.48-5.42-1.99-8.4-1.33-.74.16-1.41.48-2,.96-1.37,1.11-1.76,3.62.32,4.89,1.12.68,2.37.97,3.61,1.31,1.64.45,3.26.92,4.89,1.4.28.08.53.23.8.35,4.38,2.04,3.96,7.61.73,9.81-1.3.89-2.74,1.37-4.28,1.56-2.81.34-5.56.07-8.17-1.06-.87-.38-1.65-.94-2.47-1.43-.23-.13-.27-.28-.14-.54.36-.71.69-1.43,1.05-2.19,1.35,1.13,2.87,1.83,4.52,2.24,2.05.5,4.1.58,6.14-.04,1.04-.32,1.92-.87,2.38-1.9.6-1.34.19-2.73-1.03-3.57-.96-.66-2.07-.96-3.18-1.26-1.7-.47-3.43-.87-5.1-1.43-.87-.29-1.71-.79-2.46-1.34-1.19-.87-1.77-2.12-1.89-3.59-.29-3.63,1.92-5.73,4.49-6.53,3.73-1.16,7.37-.83,10.87.9.25.12.47.28.76.45Z"/>
    <path class="b" d="m79.5,76.45c.57-1.26,1.1-2.44,1.64-3.62,2.85-6.28,5.7-12.56,8.54-18.84.15-.32.31-.46.68-.44.8.03,1.61.02,2.41,0,.26,0,.39.09.5.33,3.37,7.42,6.75,14.84,10.13,22.25.04.08.07.17.12.31-1.09,0-2.14.01-3.18-.02-.12,0-.27-.2-.33-.34-.93-2.08-1.85-4.16-2.75-6.25-.12-.29-.28-.38-.59-.38-2.44.01-4.87,0-7.31,0h-.52c.37-.84.7-1.63,1.07-2.41.05-.1.28-.15.42-.15,1.67-.01,3.35,0,5.02,0,.16,0,.33,0,.59,0-1.49-3.38-2.95-6.68-4.45-10.1-.12.27-.2.42-.27.58-2.74,6.22-5.49,12.44-8.22,18.66-.13.29-.27.41-.61.4-.94-.03-1.88,0-2.9,0Z"/>
    <path class="b" d="m157.8,76.45c-1.01,0-2,0-2.99,0-.07,0-.17-.11-.2-.2-.04-.11-.02-.25-.02-.37,0-7.23,0-14.46,0-21.7q0-.62.61-.62c.73,0,1.47,0,2.2,0,.3,0,.44.06.44.41-.01,7.37,0,14.74,0,22.11,0,.11-.01.21-.03.37Z"/>
  </g>
  <g>
    <circle class="b" cx="22.08" cy="76.33" r="1.98"/>
    <circle class="b" cx="16.47" cy="76.33" r="1.15"/>
    <circle class="b" cx="27.82" cy="76.33" r="1.15"/>
    <circle class="b" cx="33.49" cy="76.33" r="1.15"/>
    <circle class="b" cx="33.49" cy="64.98" r="1.15"/>
    <circle class="b" cx="33.49" cy="53.67" r="1.15"/>
    <circle class="b" cx="27.82" cy="53.67" r="1.15"/>
    <circle class="b" cx="27.82" cy="59.34" r="1.15"/>
    <circle class="b" cx="22.08" cy="59.34" r="1.15"/>
    <circle class="b" cx="27.82" cy="70.67" r="1.15"/>
    <circle class="b" cx="39.14" cy="70.67" r="1.15"/>
    <circle class="b" cx="44.91" cy="70.67" r="1.15"/>
    <circle class="b" cx="39.14" cy="64.98" r="1.15"/>
    <circle class="b" cx="44.91" cy="64.98" r="1.15"/>
    <circle class="b" cx="50.57" cy="64.98" r="1.15"/>
    <circle class="b" cx="39.14" cy="59.34" r="1.15"/>
    <circle class="b" cx="44.91" cy="59.34" r="1.15"/>
    <circle class="b" cx="22.08" cy="70.67" r="1.15"/>
    <circle class="b" cx="16.47" cy="53.67" r="1.15"/>
    <circle class="b" cx="39.14" cy="76.33" r="1.98"/>
    <circle class="b" cx="33.49" cy="70.67" r="1.98"/>
    <circle class="b" cx="33.49" cy="59.34" r="1.98"/>
    <circle class="b" cx="22.08" cy="64.98" r="1.98"/>
    <circle class="b" cx="27.82" cy="64.98" r="1.98"/>
    <circle class="b" cx="22.08" cy="53.67" r="1.98"/>
    <circle class="b" cx="39.14" cy="53.67" r="1.98"/>
  </g>
</svg>