<?xml version="1.0" encoding="UTF-8"?>
<svg id="a" data-name="Layer 1" xmlns="http://www.w3.org/2000/svg" viewBox="0 0 250 130">
  <defs>
    <style>
      .b {
        fill: #fff;
      }

      .c {
        fill: #fbfbfb;
      }
    </style>
  </defs>
  <path class="b" d="m71.84,48.85h6.41v14.26h.12c.63-1.24,1.31-2.39,1.96-3.54l6.49-10.72h7.93l-9.45,13.74,9.97,18.52h-7.56l-7-13.93-2.47,3.4v10.53h-6.41v-32.26Z"/>
  <path class="b" d="m109.52,66.75c0-1.77-.68-4.74-3.64-4.74-2.71,0-3.82,2.77-3.99,4.74h7.63Zm-7.59,4.97c.21,3.01,2.84,4.45,5.86,4.45,2.21,0,3.99-.34,5.72-.96l.84,4.92c-2.12.96-4.71,1.48-7.51,1.48-7.04,0-11.08-4.64-11.08-11.96,0-5.93,3.27-12.49,10.48-12.49,6.7,0,9.25,5.88,9.25,11.68,0,1.24-.12,2.35-.21,2.87h-13.37Z"/>
  <path class="b" d="m127.42,51.01v6.7h4.63v5.36h-4.62v8.47c0,2.82.6,4.12,2.54,4.12.81,0,1.44-.1,1.91-.19l.04,5.5c-.85.39-2.38.67-4.2.67-2.08,0-3.82-.86-4.83-2.05-1.19-1.39-1.78-3.63-1.78-6.94v-9.58h-2.76v-5.36h2.76v-5.07l6.32-1.63Z"/>
  <path class="b" d="m143.84,51.01v6.7h4.63v5.36h-4.62v8.47c0,2.82.59,4.12,2.54,4.12.81,0,1.44-.1,1.91-.19l.04,5.5c-.85.39-2.38.67-4.2.67-2.08,0-3.82-.86-4.83-2.05-1.19-1.39-1.78-3.63-1.78-6.94v-9.58h-2.76v-5.36h2.76v-5.07l6.32-1.63Z"/>
  <path class="b" d="m157.46,69.48c0,3.73,1.31,6.94,4.2,6.94s4.16-3.16,4.16-6.94c0-3.35-.98-7.13-4.16-7.13s-4.2,3.83-4.2,7.13Zm15.03-.1c0,8.76-5.93,12.25-11.11,12.25-5.9,0-10.57-4.55-10.57-12.2s4.97-12.25,11.08-12.25,10.6,4.65,10.6,12.2Z"/>
  <path class="c" d="m166.79,45.84c-.04-.06-.09-.12-.12-.17.55-4.5,6.91-4.81,6.91-8.75,0,2.7-5.86,1.65-9.22,3.84-.11-.61-.15-1.26-.14-1.98,0-6.06,5.9-8.38,5.9-12.61,0,4.24-9.79,5.11-10.95,12.27-1.1-.92-2.28-1.54-3.68-1.54-2.28,0-3.46,2.26-3.46,2.26,0,0,2.03-.66,2.71,1.72.57,2.01,2.15,10.71,23.41,8.47,0,0-6.52-.53-11.37-3.51Z"/>
  <path class="c" d="m153.29,53.26s-.02-.04-.04-.06c.2-1.65,2.47-1.83,2.6-3.2-.19.86-2.27.53-3.48,1.33-.04-.24-.06-.47-.05-.75,0-2.3,2.24-3.18,2.24-4.79,0,1.62-3.72,1.94-4.15,4.66-.42-.35-.87-.58-1.4-.58-.87,0-1.31.86-1.31.86,0,0,.77-.25,1.03.65.22.77.82,4.07,8.88,3.21,0,0-2.48-.2-4.32-1.33Z"/>
</svg>