<?xml version="1.0" encoding="UTF-8"?>
<svg id="a" data-name="Layer 1" xmlns="http://www.w3.org/2000/svg" viewBox="0 0 250 130">
  <defs>
    <style>
      .b {
        fill: #fff;
      }
    </style>
  </defs>
  <path class="b" d="m52.73,60.59l2.41-1.31,1.13-10.7-9.65,7.15-9.72-7.02,1.25,10.67,2.29,1.34-.71-7.37,6.85,4.9,6.85-4.84-.71,7.18Z"/>
  <path class="b" d="m47.44,72.34l-.07,2.68,8.91,6.41-1.4-11.7,11.19-4.51-10.1-4.41-2.36,1.22,6.89,3.17-7.84,3.21.78,8.19-6-4.26Z"/>
  <path class="b" d="m45.72,72.34l.07,2.68-8.91,6.41,1.4-11.7-11.19-4.51,10.1-4.41,2.36,1.22-6.89,3.17,7.84,3.21-.78,8.19,6-4.26Z"/>
  <path class="b" d="m82.79,56.86c0-.52.46-.96.99-.96h.23c.43,0,.74.22.94.52l6.34,9.25,6.34-9.25c.2-.32.53-.52.94-.52h.23c.53,0,.99.44.99.96v15.47c0,.54-.46.98-.99.98s-1.01-.47-1.01-.98v-12.84l-5.68,8.09c-.23.32-.48.49-.84.49s-.63-.17-.86-.49l-5.65-8.07v12.84c0,.54-.43.96-.99.96s-.96-.42-.96-.96v-15.5h0Z"/>
  <path class="b" d="m106.83,72.21v-15.25c0-.54.46-.98.99-.98h11.03c.51,0,.91.39.91.88s-.41.88-.91.88h-10.02v5.88h8.87c.51,0,.91.42.91.88,0,.49-.41.88-.91.88h-8.87v6.03h10.14c.51,0,.91.39.91.88s-.41.88-.91.88h-11.16c-.53,0-.99-.44-.99-.98h0Z"/>
  <path class="b" d="m125.85,56.83c0-.54.46-.98.99-.98s1.01.44,1.01.98v14.56h9.2c.51,0,.91.42.91.91s-.4.88-.91.88h-10.22c-.53,0-.99-.44-.99-.98v-15.37Z"/>
  <path class="b" d="m141.77,64.63v-.05c0-4.75,3.68-8.9,9.08-8.9s9.03,4.11,9.03,8.86v.05c0,4.75-3.68,8.9-9.08,8.9s-9.03-4.11-9.03-8.86Zm16.02,0v-.05c0-3.91-2.94-7.11-7-7.11s-6.95,3.15-6.95,7.06v.05c0,3.91,2.94,7.11,7,7.11s6.95-3.15,6.95-7.06Z"/>
  <path class="b" d="m166.13,56.96c0-.54.46-.98.99-.98h6.64c2.18,0,3.93.64,5.05,1.72.86.84,1.37,2.04,1.37,3.4v.05c0,2.83-1.98,4.48-4.74,4.99l4.41,5.51c.2.22.33.44.33.71,0,.52-.51.96-1.01.96-.41,0-.71-.22-.94-.52l-5-6.3h-5.1v5.83c0,.54-.46.98-1.01.98s-.99-.44-.99-.98v-15.37h0Zm7.45,7.8c2.66,0,4.56-1.33,4.56-3.54v-.05c0-2.12-1.67-3.4-4.54-3.4h-5.48v6.99h5.45,0Z"/>
  <path class="b" d="m186.49,56.96c0-.54.46-.98.99-.98h6.64c2.18,0,3.93.64,5.05,1.72.86.84,1.37,2.04,1.37,3.4v.05c0,2.83-1.98,4.48-4.74,4.99l4.41,5.51c.2.22.33.44.33.71,0,.52-.51.96-1.01.96-.4,0-.71-.22-.94-.52l-5-6.3h-5.1v5.83c0,.54-.46.98-1.01.98s-.99-.44-.99-.98v-15.37h0Zm7.45,7.8c2.66,0,4.56-1.33,4.56-3.54v-.05c0-2.12-1.67-3.4-4.54-3.4h-5.48v6.99h5.45,0Z"/>
  <path class="b" d="m205.76,71.91l7.2-15.27c.25-.54.63-.86,1.27-.86h.1c.61,0,1.01.32,1.24.86l7.2,15.25c.07.17.13.34.13.49,0,.52-.43.93-.96.93-.48,0-.81-.32-.99-.71l-1.85-3.96h-9.74l-1.85,4.01c-.18.42-.51.66-.96.66-.51,0-.91-.39-.91-.88,0-.15.03-.32.13-.52h0Zm12.55-5.04l-4.08-8.81-4.08,8.81h8.16,0Z"/>
</svg>