<?xml version="1.0" encoding="UTF-8"?>
<svg id="a" data-name="Layer 1" xmlns="http://www.w3.org/2000/svg" viewBox="0 0 250 130">
  <defs>
    <style>
      .b {
        fill: #fff;
      }

      .c {
        fill: #747474;
      }

      .d {
        fill: #979797;
      }

      .e {
        fill: #8b8b8b;
      }

      .f {
        fill: #b5b5b5;
      }

      .g {
        fill: #c9c9c9;
      }

      .h {
        fill: #adadad;
      }

      .i {
        fill: #878787;
      }

      .j {
        fill: #646464;
      }

      .k {
        fill: #777;
      }

      .l {
        fill: #7b7b7b;
      }
    </style>
  </defs>
  <g>
    <path class="b" d="m72.31,51.22c2.67,0,4.94.92,6.77,2.71s2.75,4.02,2.75,6.65-.92,4.86-2.75,6.65-4.1,2.71-6.77,2.71h-4.9v9.16h-5.5v-27.88h10.4Zm0,13.58c2.35,0,4.06-1.83,4.06-4.22s-1.71-4.22-4.06-4.22h-4.9v8.44h4.9Z"/>
    <path class="b" d="m114.33,72.77l4.7-2.75c1.08,2.83,3.23,4.26,6.41,4.26s4.46-1.23,4.46-2.95c0-1-.44-1.75-1.31-2.27-.88-.56-2.43-1.16-4.7-1.79-2.51-.76-4.02-1.35-5.78-2.59-1.71-1.27-2.63-3.19-2.63-5.74s.88-4.54,2.67-6.01c1.79-1.51,3.98-2.27,6.49-2.27,4.5,0,8.05,2.31,9.96,6.25l-4.62,2.67c-1.12-2.39-2.91-3.58-5.34-3.58-2.27,0-3.66,1.16-3.66,2.79,0,.88.36,1.59,1.08,2.15.76.52,2.15,1.12,4.22,1.75l1.91.64c.44.12,1.04.36,1.79.68.76.28,1.35.56,1.75.84.84.52,2.11,1.51,2.63,2.47.6.96,1.04,2.35,1.04,3.94,0,2.59-.96,4.62-2.83,6.13-1.87,1.51-4.3,2.27-7.29,2.27-5.54,0-9.4-2.63-10.95-6.89Z"/>
    <path class="b" d="m138.78,51.22h5.5v27.88h-5.5v-27.88Z"/>
    <path class="b" d="m146.79,72.77l4.7-2.75c1.08,2.83,3.23,4.26,6.41,4.26s4.46-1.23,4.46-2.95c0-1-.44-1.75-1.31-2.27-.88-.56-2.43-1.16-4.7-1.79-2.51-.76-4.02-1.35-5.78-2.59-1.71-1.27-2.63-3.19-2.63-5.74s.88-4.54,2.67-6.01c1.79-1.51,3.98-2.27,6.49-2.27,4.5,0,8.05,2.31,9.96,6.25l-4.62,2.67c-1.12-2.39-2.91-3.58-5.34-3.58-2.27,0-3.66,1.16-3.66,2.79,0,.88.36,1.59,1.08,2.15.76.52,2.15,1.12,4.22,1.75l1.91.64c.44.12,1.04.36,1.79.68.76.28,1.35.56,1.75.84.84.52,2.11,1.51,2.63,2.47.6.96,1.04,2.35,1.04,3.94,0,2.59-.96,4.62-2.83,6.13-1.87,1.51-4.3,2.27-7.29,2.27-5.54,0-9.4-2.63-10.95-6.89Z"/>
    <path class="b" d="m188.09,51.22v5.26h-7.53v22.62h-5.5v-22.62h-7.49v-5.26h20.51Z"/>
  </g>
  <g>
    <g>
      <g>
        <path class="g" d="m107.83,66.31c-.16,1.15-.53,2.24-1.07,3.22l4.22,3.93c1.59-2.33,2.53-5.13,2.6-8.14-.56.42-1.39.94-2.55,1.34-1.76.61-2.79,0-3.19-.34Z"/>
        <g>
          <path class="h" d="m113.57,64.5c-.08-2.38-.71-4.61-1.76-6.59-.18.53-.55,1.24-1.3,2.07-1.36,1.5-2.82,1.55-3.26,1.53.43,1.08.67,2.26.67,3.49,0,.29-.01.58-.04.87-.01.15-.03.29-.05.44.4.35,1.43.96,3.19.34,1.16-.4,2-.92,2.55-1.34,0-.1,0-.21,0-.31,0-.17,0-.33,0-.5Z"/>
          <g>
            <path class="d" d="m111.5,57.38c-1.45-2.47-3.59-4.48-6.15-5.79.2.62.34,1.44.28,2.44-.15,2.28-1.65,3.14-1.79,3.22,1.3.89,2.36,2.09,3.07,3.51.12.24.24.49.34.74.45.02,1.9-.03,3.26-1.53.75-.82,1.12-1.54,1.3-2.07-.1-.18-.2-.36-.3-.54Z"/>
            <g>
              <path class="e" d="m105.35,51.59c-.13-.06-.25-.13-.38-.19-1.95-.92-4.12-1.44-6.42-1.44-.51,0-1.02.03-1.52.08.65.62,1.28,1.55,1.28,2.82,0,1.5-.45,2.51-.6,2.79.28-.02.56-.04.84-.04,1.73,0,3.35.47,4.74,1.29.19.11.37.23.55.35.14-.08,1.64-.94,1.79-3.22.07-1-.08-1.82-.28-2.44Z"/>
              <path class="k" d="m97.02,50.05c-.1,0-.2.02-.29.03-2.81.34-5.39,1.45-7.5,3.12l4.22,3.93c1.16-.75,2.49-1.25,3.92-1.43.11-.01.22-.03.34-.04.15-.28.6-1.29.6-2.79,0-1.27-.63-2.2-1.28-2.82Z"/>
            </g>
          </g>
        </g>
      </g>
      <g>
        <g>
          <g>
            <g>
              <path class="j" d="m99.77,79.98c2.95-.24,5.67-1.33,7.89-3.03l-4.24-3.95c-1.09.67-2.34,1.12-3.67,1.29-.32.56-.65,1.31-.74,2.16-.21,1.93.41,3.06.75,3.52Z"/>
              <path class="l" d="m99.01,76.46c.09-.85.42-1.6.74-2.16-.12.02-.25.03-.38.04-.27.02-.55.04-.83.04-1.59,0-3.09-.4-4.41-1.1-.52.39-1.2.99-1.84,1.85-.9,1.21-.9,2.49-.82,3.15,2.11,1.12,4.51,1.76,7.06,1.76.35,0,.69-.01,1.03-.04.06,0,.13,0,.19-.01-.34-.46-.96-1.6-.75-3.52Z"/>
            </g>
            <path class="f" d="m93.71,73.03c-1.59-.96-2.87-2.38-3.66-4.07-.49.12-1.15.38-1.96.91-1.62,1.06-2.12,2.58-2.25,3.15,1.27,2.01,3.01,3.7,5.06,4.92.19.11.39.23.59.33-.08-.66-.09-1.94.82-3.15.64-.86,1.32-1.46,1.84-1.85-.15-.08-.29-.16-.43-.24Z"/>
          </g>
          <path class="i" d="m89.9,68.63c-.47-1.12-.73-2.34-.73-3.63,0-.36.02-.72.06-1.06-.56-.21-1.53-.47-2.62-.32-2.26.32-3.1,1.39-3.1,1.39,0,2.77.75,5.36,2.06,7.59.08.14.17.29.26.43.14-.58.63-2.1,2.25-3.15.81-.53,1.47-.79,1.96-.91-.05-.11-.1-.22-.15-.34Z"/>
        </g>
        <path class="c" d="m85.97,56.76c-1.46,2.22-2.34,4.84-2.45,7.67,0,.19-.01.38-.01.57,0,0,0,0,0,0,0,0,.85-1.07,3.1-1.39,1.09-.15,2.06.11,2.62.32.03-.23.06-.46.1-.68.17-.9.47-1.76.88-2.55l-4.24-3.95Z"/>
      </g>
    </g>
    <circle class="b" cx="98.51" cy="64.93" r="4.43"/>
  </g>
</svg>