<?xml version="1.0" encoding="UTF-8"?>
<svg id="a" data-name="Layer 1" xmlns="http://www.w3.org/2000/svg" viewBox="0 0 250 130">
  <defs>
    <style>
      .b {
        fill: none;
      }

      .c {
        fill: #fff;
      }

      .d {
        fill: #b2b1b1;
      }
    </style>
  </defs>
  <g>
    <path class="b" d="m106.69,51.75c-1.65,0-3.2.64-4.37,1.81-1.17,1.17-1.81,2.72-1.81,4.37s.64,3.2,1.81,4.37c1.17,1.17,2.72,1.81,4.37,1.81s3.2-.64,4.37-1.81l4.37-4.37-4.37-4.37c-1.17-1.17-2.72-1.81-4.37-1.81Z"/>
    <path class="b" d="m143.32,63.93c1.65,0,3.2-.64,4.37-1.81,1.17-1.17,1.81-2.72,1.81-4.37s-.64-3.2-1.81-4.37c-1.17-1.17-2.72-1.81-4.37-1.81s-3.2.64-4.37,1.81l-4.37,4.37,4.37,4.37c1.17,1.17,2.72,1.81,4.37,1.81Z"/>
    <path class="b" d="m131.27,39.52c0-1.65-.64-3.2-1.81-4.37-1.16-1.16-2.72-1.81-4.37-1.81s-3.2.64-4.37,1.81c-2.41,2.41-2.41,6.33,0,8.74l4.37,4.37h0s0,0,0,0l4.37-4.37c1.17-1.16,1.81-2.72,1.81-4.37Z"/>
    <path class="b" d="m120.55,71.79c-1.17,1.17-1.81,2.72-1.81,4.37s.64,3.2,1.81,4.37c1.17,1.17,2.72,1.81,4.37,1.81s3.2-.64,4.37-1.81c1.17-1.17,1.81-2.72,1.81-4.37s-.64-3.2-1.81-4.37l-4.37-4.37-4.37,4.37Z"/>
    <rect class="b" x="123.31" y="56.08" width="3.5" height="3.4" transform="translate(-4.23 105.36) rotate(-45)"/>
    <g>
      <path class="c" d="m122.15,58.31l-2.58,2.57,2.89,2.89h0s2.57,2.79,2.57,2.79l4.75,4.75c1.3,1.3,2.01,3.02,2.01,4.85s-.71,3.56-2.01,4.85c-1.3,1.3-3.02,2.01-4.85,2.01s-3.56-.71-4.85-2.01c-1.3-1.3-2.01-3.02-2.01-4.85s.71-3.56,2.01-4.85l4.37-4.37-2.47-2.68-4.47,4.47c-1.98,1.98-3.08,4.62-3.08,7.43s1.09,5.44,3.08,7.43c1.98,1.98,4.62,3.08,7.43,3.08s5.44-1.09,7.43-3.08c1.98-1.98,3.08-4.62,3.08-7.43s-1.09-5.44-3.08-7.43l-4.85-4.85h0s-2.72-2.94-2.72-2.94l-2.63-2.63Z"/>
      <path class="c" d="m121.66,57.83h0s2.96-2.97,2.96-2.97l-2.58-2.58-3.07,3.07h0s-2.58,2.57-2.58,2.57h0s-4.85,4.86-4.85,4.86c-1.3,1.3-3.02,2.01-4.85,2.01s-3.56-.71-4.85-2.01c-1.3-1.3-2.01-3.02-2.01-4.85s.71-3.56,2.01-4.85c1.3-1.3,3.02-2.01,4.85-2.01s3.56.71,4.85,2.01l4.36,4.36,2.58-2.57-4.37-4.37c-1.98-1.98-4.62-3.08-7.43-3.08s-5.44,1.09-7.43,3.08c-1.98,1.98-3.08,4.62-3.08,7.43s1.09,5.44,3.08,7.43c1.98,1.98,4.62,3.08,7.43,3.08s5.44-1.09,7.43-3.08l4.7-4.7h0s2.85-2.83,2.85-2.83Z"/>
      <path class="c" d="m150.75,50.32c-1.98-1.98-4.62-3.08-7.43-3.08s-5.44,1.09-7.43,3.08l-4.71,4.71h0s-2.72,2.71-2.72,2.71h0s-2.97,2.97-2.97,2.97l2.48,2.67,2.93-2.93h0s.07-.07.07-.07l.07-.07h0s2.58-2.57,2.58-2.57h0s4.85-4.86,4.85-4.86c1.3-1.3,3.02-2.01,4.85-2.01s3.56.71,4.85,2.01c1.3,1.3,2.01,3.02,2.01,4.85s-.71,3.56-2.01,4.85c-1.3,1.3-3.02,2.01-4.85,2.01s-3.56-.71-4.85-2.01l-4.36-4.36-2.58,2.57,4.37,4.37c1.98,1.98,4.62,3.08,7.43,3.08s5.44-1.09,7.43-3.08c1.98-1.98,3.08-4.62,3.08-7.43s-1.09-5.44-3.08-7.43Z"/>
      <path class="c" d="m125.54,54.82h0s2.44,2.44,2.44,2.44l2.58-2.57-2.89-2.89h0s-2.58-2.58-2.58-2.58h0s-4.85-4.85-4.85-4.85c-2.68-2.68-2.68-7.03,0-9.7,1.34-1.34,3.09-2.01,4.85-2.01s3.51.67,4.85,2.01c2.68,2.68,2.68,7.03,0,9.7l-4.37,4.37,2.58,2.58,4.37-4.37c4.1-4.1,4.1-10.76,0-14.86-2.05-2.05-4.74-3.07-7.43-3.07s-5.38,1.02-7.43,3.07c-4.1,4.1-4.1,10.76,0,14.86l4.4,4.4h0s3.47,3.46,3.47,3.46Z"/>
    </g>
    <path class="d" d="m151.23,49.84c-2.11-2.11-4.92-3.28-7.91-3.28s-5.8,1.16-7.91,3.28l-4.37,4.37-2.4-2.4,4.37-4.37c4.36-4.36,4.36-11.46,0-15.82-2.11-2.11-4.92-3.27-7.91-3.27s-5.8,1.16-7.91,3.27c-4.36,4.36-4.36,11.46,0,15.82l4.37,4.37-2.59,2.59-4.37-4.37c-2.11-2.11-4.92-3.28-7.91-3.28s-5.8,1.16-7.91,3.28c-2.11,2.11-3.28,4.92-3.28,7.91s1.16,5.8,3.28,7.91c2.11,2.11,4.92,3.28,7.91,3.28s5.8-1.16,7.91-3.28l4.48-4.48,2.4,2.4-4.48,4.48c-2.11,2.11-3.28,4.92-3.28,7.91s1.16,5.8,3.28,7.91c2.11,2.11,4.92,3.28,7.91,3.28s5.8-1.16,7.91-3.28c2.11-2.11,3.28-4.92,3.28-7.91s-1.16-5.8-3.28-7.91l-4.37-4.37,2.59-2.59,4.37,4.37c2.11,2.11,4.92,3.28,7.91,3.28s5.8-1.16,7.91-3.28c2.11-2.11,3.28-4.92,3.28-7.91s-1.16-5.8-3.28-7.91Zm-33.56-2.89c-4.1-4.1-4.1-10.76,0-14.86,2.05-2.05,4.74-3.07,7.43-3.07s5.38,1.02,7.43,3.07c4.1,4.1,4.1,10.76,0,14.86l-4.37,4.37-2.58-2.58,4.37-4.37c2.68-2.68,2.68-7.03,0-9.7-1.34-1.34-3.1-2.01-4.85-2.01s-3.51.67-4.85,2.01c-2.68,2.68-2.68,7.03,0,9.7l4.85,4.85h0s2.58,2.57,2.58,2.57h0s2.89,2.89,2.89,2.89l-2.58,2.57-2.44-2.44h0s-3.47-3.47-3.47-3.47h0s-4.4-4.4-4.4-4.4Zm7.43,1.3h0s-4.37-4.36-4.37-4.36c-2.41-2.41-2.41-6.33,0-8.74,1.17-1.16,2.72-1.81,4.37-1.81s3.2.64,4.37,1.81c1.17,1.16,1.81,2.72,1.81,4.37s-.64,3.2-1.81,4.37l-4.37,4.37h0Zm-.07,11.96l-2.4-2.4,2.47-2.47,2.4,2.4-2.48,2.48Zm-10.91,5.13c-1.98,1.98-4.62,3.08-7.43,3.08s-5.44-1.09-7.43-3.08c-1.98-1.98-3.08-4.62-3.08-7.43s1.09-5.44,3.08-7.43c1.98-1.98,4.62-3.08,7.43-3.08s5.44,1.09,7.43,3.08l4.37,4.37-2.58,2.57-4.36-4.36c-1.3-1.3-3.02-2.01-4.85-2.01s-3.56.71-4.85,2.01c-1.3,1.3-2.01,3.02-2.01,4.85s.71,3.56,2.01,4.85c1.3,1.3,3.02,2.01,4.85,2.01s3.56-.71,4.85-2.01l4.85-4.85h0s2.58-2.58,2.58-2.58h0s3.07-3.07,3.07-3.07l2.58,2.58-2.96,2.96h0s-2.85,2.84-2.85,2.84h0s-4.7,4.7-4.7,4.7Zm1.31-7.43l-4.37,4.37c-1.17,1.17-2.72,1.81-4.37,1.81s-3.2-.64-4.37-1.81c-1.17-1.17-1.81-2.72-1.81-4.37s.64-3.2,1.81-4.37c1.17-1.17,2.72-1.81,4.37-1.81s3.2.64,4.37,1.81l4.37,4.37Zm16.91,10.8c1.98,1.98,3.08,4.62,3.08,7.43s-1.09,5.44-3.08,7.43c-1.98,1.98-4.62,3.08-7.43,3.08s-5.44-1.09-7.43-3.08c-1.98-1.98-3.08-4.62-3.08-7.43s1.09-5.44,3.08-7.43l4.47-4.47,2.47,2.68-4.37,4.37c-1.3,1.3-2.01,3.02-2.01,4.85s.71,3.56,2.01,4.85c1.3,1.3,3.02,2.01,4.85,2.01s3.56-.71,4.85-2.01c1.3-1.3,2.01-3.02,2.01-4.85s-.71-3.56-2.01-4.85l-4.75-4.75-2.57-2.78h0s-2.89-2.89-2.89-2.89l2.58-2.57,2.63,2.63,2.72,2.93h0s4.85,4.86,4.85,4.86Zm-3.06,3.06c1.17,1.17,1.81,2.72,1.81,4.37s-.64,3.2-1.81,4.37c-1.17,1.17-2.72,1.81-4.37,1.81s-3.2-.64-4.37-1.81c-1.17-1.17-1.81-2.72-1.81-4.37s.64-3.2,1.81-4.37l4.37-4.37,4.37,4.37Zm21.47-6.61c-1.98,1.98-4.62,3.08-7.43,3.08s-5.44-1.09-7.43-3.08l-4.37-4.37,2.58-2.57,4.36,4.36c1.3,1.3,3.02,2.01,4.85,2.01s3.56-.71,4.85-2.01c1.3-1.3,2.01-3.02,2.01-4.85s-.71-3.56-2.01-4.85c-1.3-1.3-3.02-2.01-4.85-2.01s-3.56.71-4.85,2.01l-4.85,4.85h0s-2.58,2.58-2.58,2.58h0s-.07.07-.07.07l-.07.07h0s-2.93,2.93-2.93,2.93l-2.48-2.67,2.97-2.97h0s2.72-2.71,2.72-2.71h0s4.71-4.72,4.71-4.72c1.98-1.98,4.62-3.08,7.43-3.08s5.44,1.09,7.43,3.08c1.98,1.98,3.08,4.62,3.08,7.43s-1.09,5.44-3.08,7.43Zm-16.17-7.43l4.37-4.37c1.17-1.17,2.72-1.81,4.37-1.81s3.2.64,4.37,1.81c1.17,1.17,1.81,2.72,1.81,4.37s-.64,3.2-1.81,4.37c-1.17,1.17-2.72,1.81-4.37,1.81s-3.2-.64-4.37-1.81l-4.37-4.37Z"/>
  </g>
  <g>
    <path class="c" d="m87.86,94.06h3.34c.94,0,1.68.28,2.16.75.4.42.62.96.62,1.62v.02c0,1.23-.74,1.97-1.78,2.27l2.02,2.84h-1.56l-1.84-2.61h-1.65v2.61h-1.32v-7.49Zm3.24,3.71c.94,0,1.54-.48,1.54-1.25v-.02c0-.81-.57-1.24-1.55-1.24h-1.92v2.51h1.93Z"/>
    <path class="c" d="m95.59,94.06h5.55v1.18h-4.24v1.95h3.76v1.19h-3.76v2h4.29v1.18h-5.61v-7.49Z"/>
    <path class="c" d="m102.26,100.46l.79-.94c.73.63,1.43.97,2.36.97.81,0,1.33-.39,1.33-.94v-.02c0-.52-.3-.83-1.69-1.14-1.59-.37-2.49-.87-2.49-2.24v-.02c0-1.28,1.07-2.17,2.56-2.17,1.1,0,1.95.33,2.72.94l-.71,1c-.68-.5-1.35-.77-2.03-.77-.77,0-1.22.39-1.22.89v.02c0,.58.34.83,1.79,1.18,1.57.41,2.4.94,2.4,2.19v.02c0,1.41-1.1,2.24-2.67,2.24-1.16,0-2.23-.39-3.12-1.2Z"/>
    <path class="c" d="m109.61,94.06h1.32v3.11h3.57v-3.11h1.32v7.49h-1.32v-3.16h-3.57v3.16h-1.32v-7.49Z"/>
    <path class="c" d="m120.39,94.01h1.22l3.3,7.54h-1.39l-.76-1.81h-3.54l-.77,1.81h-1.35l3.3-7.54Zm1.88,4.57l-1.29-3-1.28,3h2.58Z"/>
    <path class="c" d="m126.19,94.06h1.4l2.28,3.54,2.28-3.54h1.4v7.49h-1.32v-5.37l-2.36,3.53h-.04l-2.34-3.51v5.35h-1.29v-7.49Z"/>
    <path class="c" d="m138.13,94.01h1.22l3.3,7.54h-1.39l-.76-1.81h-3.54l-.77,1.81h-1.35l3.3-7.54Zm1.88,4.57l-1.29-3-1.28,3h2.58Z"/>
    <path class="c" d="m143.93,94.06h1.22l4.01,5.18v-5.18h1.29v7.49h-1.1l-4.13-5.33v5.33h-1.29v-7.49Z"/>
    <path class="c" d="m152.39,94.06h2.79c2.35,0,3.98,1.62,3.98,3.72v.02c0,2.11-1.63,3.74-3.98,3.74h-2.79v-7.49Zm1.32,1.2v5.09h1.48c1.57,0,2.6-1.06,2.6-2.52v-.02c0-1.47-1.03-2.55-2.6-2.55h-1.48Z"/>
    <path class="c" d="m160.83,94.06h1.32v7.49h-1.32v-7.49Z"/>
  </g>
</svg>