<?xml version="1.0" encoding="UTF-8"?>
<svg id="a" data-name="Layer 1" xmlns="http://www.w3.org/2000/svg" viewBox="0 0 250 130">
  <defs>
    <style>
      .b {
        fill: #fff;
      }
    </style>
  </defs>
  <g>
    <path class="b" d="m80,70.9l1.62-3.69c1.42.88,3.49,1.42,5.36,1.42s2.41-.4,2.41-1.05c0-2.07-9.08.28-9.08-5.87,0-2.89,2.67-5.11,7.49-5.11,2.16,0,4.54.45,6.07,1.31l-1.62,3.66c-1.53-.85-3.06-1.13-4.43-1.13-1.82,0-2.47.51-2.47,1.08,0,2.13,9.05-.17,9.05,5.93,0,2.84-2.61,5.05-7.6,5.05-2.61,0-5.31-.65-6.81-1.59Z"/>
    <path class="b" d="m111.97,63.44v8.8h-5.39v-7.92c0-2.21-.96-3.15-2.53-3.15-1.73,0-3.06,1.08-3.06,3.63v7.43h-5.39v-15.38h5.14v1.67c1.22-1.28,2.95-1.93,4.88-1.93,3.6,0,6.36,2.07,6.36,6.84Z"/>
    <path class="b" d="m128.63,63.69v8.54h-5.02v-1.99c-.77,1.48-2.3,2.24-4.54,2.24-3.69,0-5.73-2.07-5.73-4.74,0-2.84,2.07-4.6,6.84-4.6h3.06c-.09-1.56-1.13-2.44-3.26-2.44-1.48,0-3.12.51-4.17,1.33l-1.82-3.66c1.76-1.16,4.37-1.79,6.78-1.79,4.99,0,7.86,2.21,7.86,7.09Zm-5.39,3.6v-1.33h-2.33c-1.73,0-2.35.62-2.35,1.56s.74,1.56,2.01,1.56c1.19,0,2.24-.57,2.67-1.79Z"/>
    <path class="b" d="m148.12,64.54c0,4.88-3.38,7.94-7.55,7.94-1.79,0-3.23-.54-4.28-1.62v6.87h-5.39v-20.88h5.14v1.53c1.02-1.22,2.53-1.79,4.54-1.79,4.17,0,7.55,3.06,7.55,7.94Zm-5.45,0c0-2.33-1.42-3.66-3.23-3.66s-3.23,1.33-3.23,3.66,1.42,3.66,3.23,3.66,3.23-1.33,3.23-3.66Z"/>
    <path class="b" d="m174.73,63.58v8.65h-2.72v-8.34c0-2.95-1.42-4.4-3.89-4.4-2.72,0-4.51,1.73-4.51,4.99v7.75h-2.72v-8.34c0-2.95-1.42-4.4-3.89-4.4-2.72,0-4.51,1.73-4.51,4.99v7.75h-2.72v-15.04h2.61v2.24c1.08-1.53,2.92-2.38,5.19-2.38s4.23.91,5.22,2.78c1.13-1.7,3.23-2.78,5.79-2.78,3.66,0,6.16,2.1,6.16,6.53Z"/>
    <path class="b" d="m178.13,52.54c0-.99.79-1.79,1.84-1.79s1.84.77,1.84,1.73c0,1.02-.77,1.82-1.84,1.82s-1.84-.77-1.84-1.76Zm.48,4.65h2.72v15.04h-2.72v-15.04Z"/>
    <path class="b" d="m199.66,63.58v8.65h-2.72v-8.34c0-2.95-1.48-4.4-4.06-4.4-2.89,0-4.77,1.73-4.77,4.99v7.75h-2.72v-15.04h2.61v2.27c1.11-1.53,3.04-2.41,5.42-2.41,3.66,0,6.24,2.1,6.24,6.53Z"/>
    <path class="b" d="m212.03,71.35c-.82.71-2.07,1.05-3.29,1.05-3.04,0-4.77-1.67-4.77-4.71v-8.26h-2.55v-2.24h2.55v-3.29h2.72v3.29h4.31v2.24h-4.31v8.14c0,1.62.85,2.53,2.35,2.53.79,0,1.56-.26,2.13-.71l.85,1.96Z"/>
  </g>
  <g>
    <path class="b" d="m52.76,39.12c0,2.53,0,4.99,0,7.44,0,2.02,0,4.03,0,6.05,0,1.39-.05,1.38-1.44,1.63-3.02.54-5.35,2.2-7.11,4.68-.14.19-.12.66.02.86,1.56,2.26,3.68,3.75,6.31,4.52.24.07.47.15.71.21q1.51.4,1.51,1.93c0,4.03,0,8.06,0,12.1,0,.32,0,.65,0,1-7.11-1.84-13.61-8.95-14.63-17.44-1.48-12.45,7.34-21.38,14.63-22.97Zm-9.81,17.95c.7-.67,1.28-1.28,1.92-1.84,1.41-1.21,2.98-2.17,4.75-2.76.63-.21.97-.53.95-1.3-.05-2.62-.01-5.25-.02-7.87,0-1.02-.15-1.14-1.11-.7-.82.38-1.64.79-2.37,1.32-3.07,2.22-4.72,5.26-4.87,9.03-.06,1.37-.02,2.8.75,4.12Z"/>
    <path class="b" d="m56.26,83.46c0-2.07.05-4.15-.02-6.22-.03-.88.27-1.17,1.1-1.32,3-.51,5.41-2.04,7.28-4.46.4-.51.47-.91.04-1.45-1.94-2.42-4.32-4.07-7.44-4.51-.74-.1-.98-.43-.98-1.19.04-4.26.02-8.51.02-12.77,0-1.11.09-1.18,1.12-.76,6.31,2.54,10.52,7.06,12.7,13.51,1.02,3.02,1.29,6.16.82,9.24-1.08,7.04-4.65,12.53-10.96,16.04-.88.49-1.88.78-2.81,1.18-.62.27-.86.09-.86-.58.01-2.24,0-4.48,0-6.71Zm9.9-10.58c-.34.28-.55.41-.7.59-1.71,1.99-3.83,3.37-6.31,4.2-.57.19-.74.55-.74,1.12.02,2.65,0,5.3.01,7.95,0,1,.23,1.15,1.13.76,2.61-1.14,4.66-2.9,5.97-5.46,1.48-2.88,1.67-5.86.63-9.16Z"/>
  </g>
</svg>