<?xml version="1.0" encoding="UTF-8"?>
<svg id="a" data-name="Layer 1" xmlns="http://www.w3.org/2000/svg" viewBox="0 0 250 130">
  <defs>
    <style>
      .b {
        fill: #fff;
      }
    </style>
  </defs>
  <path class="b" d="m76.51,41.51c.42.25.89.37,1.32.62,3.53,2.06,7.07,4.1,10.61,6.14,2.24,1.3,4.5,2.58,6.74,3.88,1.02.59,1.49,1.54,1.5,2.66.02,5.72,0,11.44,0,17.15,0,1.07,0,2.14,0,3.21,0,1.13-.47,2.01-1.43,2.6-1.04.64-2.12,1.24-3.18,1.85-1.8,1.04-3.59,2.08-5.39,3.11-1.64.94-3.28,1.89-4.91,2.83-1.36.79-2.72,1.57-4.09,2.36-.56.32-1.13.58-1.8.57-.77,0-1.42-.34-2.06-.71-1.04-.6-2.08-1.2-3.12-1.8-1.13-.65-2.26-1.3-3.4-1.95-1.51-.87-3.02-1.72-4.52-2.62-.78-.47-1.55-.95-2.34-1.39-1.35-.75-2.7-1.49-4-2.31-.62-.39-1.04-.94-1.19-1.68-.02-.08,0-.18-.11-.21v-21.78c.35-.95.99-1.62,1.88-2.13,4.75-2.72,9.48-5.47,14.23-8.19,1.35-.77,2.62-1.68,4.1-2.22h1.17Zm-19.33,23.43h0c0,3.4,0,6.8,0,10.2,0,.42.14.75.52.96.23.13.46.26.69.39,2.26,1.3,4.52,2.61,6.77,3.91,2.46,1.42,4.91,2.83,7.37,4.24.93.54,1.86,1.08,2.78,1.62.3.18.62.28.95.1.49-.26.96-.54,1.44-.82,1.9-1.1,3.8-2.2,5.7-3.3,1.71-.99,3.42-1.97,5.13-2.95,1.71-.99,3.42-1.98,5.13-2.95.65-.37,1.02-.81,1-1.65-.05-3.46-.03-6.92-.04-10.38,0-3.12,0-6.24,0-9.36,0-.44-.14-.81-.56-1.05-.52-.29-1.01-.62-1.53-.92-5.28-3.05-10.56-6.08-15.82-9.14-.57-.33-1.04-.34-1.62,0-5.67,3.29-11.36,6.56-17.05,9.82-.61.35-.9.76-.89,1.51.05,3.25.02,6.51.02,9.76Z"/>
  <path class="b" d="m172.2,57.04c.91,0,1.8,0,2.68,0,.09,0,.13.02.17.13.5,1.2,1.02,2.4,1.53,3.6.42.98.83,1.97,1.26,2.95.52,1.21,1.05,2.41,1.58,3.61.03.07.08.14.14.25.33-.8.65-1.56.95-2.32.89-2.23,1.78-4.47,2.66-6.7.08-.21.12-.43.24-.62.04-.05-.03-.17.08-.17.1,0,.12.09.16.17.26.6.53,1.2.79,1.81.45,1.06.9,2.12,1.35,3.18.53,1.24,1.05,2.49,1.58,3.73.13.31.28.62.45.99,1.11-2.79,2.19-5.52,3.28-8.24.29-.72.58-1.44.87-2.15.04-.11.08-.21.25-.21.87,0,1.74,0,2.63,0-.44,1.07-.86,2.11-1.28,3.15-.48,1.16-.97,2.32-1.45,3.48-.44,1.06-.88,2.12-1.31,3.18-.55,1.34-1.08,2.68-1.63,4.02-.28.68-.57,1.35-.85,2.03-.08.21-.25.15-.39.15-.19,0-.39.07-.5-.21-.39-.95-.82-1.88-1.23-2.82-.75-1.69-1.5-3.37-2.26-5.06,0-.02-.02-.04-.03-.06-.09-.18-.08-.5-.3-.49-.18,0-.22.33-.29.51-.97,2.58-2.1,5.09-3.1,7.65-.14.37-.34.53-.74.49-.19-.02-.26-.08-.32-.24-1.11-2.55-2.23-5.1-3.35-7.64-.84-1.89-1.69-3.77-2.53-5.66-.36-.81-.71-1.63-1.07-2.48Z"/>
  <path class="b" d="m160.38,65.12c0-2.57,0-5.15,0-7.72,0-.27.05-.37.35-.37,3,.01,6.01.01,9.01,0,.3,0,.36.09.35.37-.02.52-.02,1.04,0,1.57.01.29-.07.37-.36.36-2.13-.01-4.25,0-6.38-.01-.34,0-.45.07-.45.43.03,1.18.02,2.36,0,3.53,0,.25.07.32.32.32,1.74-.01,3.48,0,5.21-.01.31,0,.4.09.38.39-.02.53-.02,1.07,0,1.6,0,.26-.05.35-.34.35-1.74-.02-3.48,0-5.21-.02-.31,0-.37.09-.37.38.02,1.42.02,2.84,0,4.26,0,.28.08.34.34.34,2.15-.01,4.3,0,6.45-.01.29,0,.4.06.39.37-.03.57-.02,1.14,0,1.71,0,.19-.06.24-.25.24-3.08,0-6.15,0-9.23,0-.29,0-.23-.17-.23-.33,0-2.59,0-5.17,0-7.76Z"/>
  <path class="b" d="m114.86,73.2c2.35-5.64,4.67-11.23,7.04-16.92.41.98.78,1.85,1.15,2.73.51,1.22,1.02,2.45,1.53,3.67.49,1.18.98,2.36,1.47,3.55.56,1.35,1.13,2.71,1.69,4.06.37.9.74,1.8,1.12,2.7.07.16.02.22-.15.22-.8,0-1.6,0-2.41,0-.14,0-.16-.05-.21-.17-.39-1.01-.81-2.01-1.2-3.03-.08-.2-.17-.27-.39-.27-1.71,0-3.43,0-5.14,0-.21,0-.33.02-.42.27-.36.99-.76,1.97-1.16,2.96-.04.1-.04.24-.22.24-.88,0-1.77,0-2.71,0Zm9.01-5.76c-.63-1.56-1.25-3.1-1.87-4.64-.02-.04-.07-.08-.11-.08-.09-.01-.06.07-.09.12-.36.88-.71,1.76-1.03,2.66-.23.64-.5,1.27-.77,1.94h3.87Z"/>
  <path class="b" d="m137.91,57.04c.85,0,1.69,0,2.53,0,.18,0,.27.05.34.22.45,1.07.92,2.13,1.38,3.2.38.9.75,1.8,1.14,2.69.59,1.36,1.18,2.71,1.78,4.07.04.1.09.19.17.36.28-.66.54-1.26.78-1.87.62-1.54,1.22-3.09,1.84-4.64.48-1.22.97-2.44,1.45-3.66.1-.25.22-.38.52-.37.79.02,1.58,0,2.4,0-.3.75-.59,1.48-.89,2.2-.58,1.41-1.17,2.82-1.74,4.23-.65,1.6-1.3,3.21-1.95,4.81-.54,1.31-1.08,2.62-1.61,3.94-.08.21-.21.4-.26.62-.07.3-.34.2-.55.21-.16,0-.29.02-.39-.21-1.01-2.33-2.03-4.66-3.06-6.98-.89-1.99-1.78-3.97-2.63-5.98-.36-.85-.76-1.69-1.14-2.54-.04-.1-.07-.2-.1-.31Z"/>
  <path class="b" d="m111.51,66.28c0,2.2,0,4.39,0,6.59,0,.28-.07.35-.34.34-.63-.02-1.26-.03-1.89,0-.29.01-.33-.09-.33-.35,0-4.37,0-8.74.01-13.11,0-.35-.08-.45-.44-.44-1.24.02-2.48,0-3.72.01-.23,0-.32-.05-.31-.3.02-.55.02-1.09,0-1.64-.01-.29.08-.36.36-.36,3.17.01,6.34,0,9.51,0,.43,0,.85.01,1.28,0,.23,0,.32.05.31.3-.02.56-.02,1.12,0,1.67,0,.26-.08.32-.33.32-1.26-.01-2.53,0-3.79-.01-.27,0-.35.06-.34.34.01,2.21,0,4.42,0,6.63Z"/>
  <path class="b" d="m131.01,65.11c0-2.57,0-5.15,0-7.72,0-.28.07-.37.36-.36.62.02,1.24.02,1.86,0,.28-.01.34.08.33.35,0,4.36,0,8.72-.01,13.07,0,.34.06.44.42.44,1.99-.02,3.99,0,5.98-.02.3,0,.37.09.36.37-.02.56-.01,1.12,0,1.67,0,.21-.04.29-.28.29-2.92,0-5.83-.01-8.75,0-.29,0-.27-.14-.27-.33,0-2.59,0-5.17,0-7.76Z"/>
  <path class="b" d="m154.48,65.11c0-2.57,0-5.15,0-7.72,0-.28.05-.38.35-.36.64.03,1.29.02,1.93,0,.23,0,.28.07.28.29,0,5.21,0,10.41,0,15.62,0,.2-.05.27-.26.26-.66-.01-1.31-.02-1.97,0-.28,0-.34-.07-.34-.34.01-2.58,0-5.17,0-7.75Z"/>
  <path class="b" d="m72.96,58.12c.99,0,1.94,0,2.88,0,.18,0,.28.05.37.21,1.14,2.05,2.29,4.1,3.43,6.15.78,1.4,1.57,2.8,2.36,4.2.19.33.21.33.39-.01,1.28-2.39,2.56-4.78,3.83-7.17.14-.26.27-.52.44-.84-1.05,0-2.06,0-3.06,0-.57,0-.5.09-.51-.5,0-.59,0-1.19,0-1.78,0-.16.01-.27.23-.27,2.62,0,5.25,0,7.93,0-.43.79-.83,1.54-1.24,2.29-1.71,3.1-3.42,6.19-5.12,9.29-.72,1.31-1.42,2.62-2.14,3.93-.26.46-.87.45-1.12,0-.92-1.64-1.85-3.28-2.77-4.93-1.86-3.32-3.72-6.65-5.58-9.97-.1-.19-.23-.36-.32-.59Z"/>
  <path class="b" d="m78.89,71.3c-.99,0-3.08,0-3.08,0,0,0-4.59-7.92-5.74-9.96-.22-.39-.45-.55-.92-.55-2.73.03-5.47,0-8.2.02-.33,0-.41-.09-.4-.4.03-.63.02-1.26,0-1.89-.01-.31.06-.41.39-.41,2.18.02,4.35,0,6.53,0,1.13,0,2.26,0,3.39,0,.25,0,.39.08.52.29.86,1.49,6.63,11.32,7.42,12.68.03.06.06.13.1.22Z"/>
  <polygon class="b" points="76.43 72.32 77.26 73.87 80.37 73.87 79.63 72.32 76.43 72.32"/>
</svg>