<?xml version="1.0" encoding="UTF-8"?>
<svg id="a" data-name="Layer 1" xmlns="http://www.w3.org/2000/svg" viewBox="0 0 250 130">
  <defs>
    <style>
      .b {
        fill: #fff;
      }
    </style>
  </defs>
  <path class="b" d="m89.5,70.24v-10.75h-2.08v-2.81h2.08v-4.39h3.16v4.39h2.08v2.81h-2.08v10.75h-3.16Z"/>
  <path class="b" d="m102.58,59.43c-1.22.1-2.08.43-2.56.97-.49.54-.72,1.51-.72,2.93v6.91h-3.16v-13.57h2.97v1.57c.49-.6.99-1.05,1.57-1.34.56-.29,1.2-.43,1.92-.43v2.95h-.02Z"/>
  <path class="b" d="m113.14,70.24v-1.48c-.47.62-.99,1.07-1.59,1.38-.6.29-1.28.45-2.04.45-1.71,0-3.01-.52-3.92-1.57-.91-1.05-1.38-2.54-1.38-4.5v-7.86h3.2v6.09c0,1.82.21,3.09.62,3.77.43.68,1.15,1.01,2.17,1.01s1.8-.37,2.27-1.13c.47-.76.68-2.04.68-3.84v-5.88h3.11v13.57h-3.12Z"/>
  <path class="b" d="m121.51,64.45c.12.97.5,1.75,1.16,2.31.68.56,1.53.85,2.6.85.7,0,1.34-.16,1.9-.45.56-.29,1.01-.72,1.34-1.24h3.4c-.58,1.48-1.44,2.62-2.58,3.45-1.15.82-2.46,1.22-3.98,1.22-1.01,0-1.94-.17-2.79-.54-.85-.35-1.61-.89-2.29-1.59-.64-.66-1.15-1.44-1.49-2.31-.35-.87-.52-1.77-.52-2.7s.16-1.84.49-2.68c.33-.83.8-1.59,1.44-2.25.7-.74,1.48-1.3,2.35-1.69.87-.39,1.77-.58,2.7-.58,1.18,0,2.27.27,3.3.8,1.03.54,1.88,1.28,2.6,2.25.43.58.76,1.24.97,1.96.21.72.31,1.55.31,2.48,0,.08,0,.19-.02.33,0,.16-.02.27-.02.33h-10.85v.04Zm7.49-2.5c-.27-.91-.72-1.59-1.36-2.06s-1.44-.72-2.41-.72c-.83,0-1.59.25-2.25.76-.66.5-1.11,1.18-1.34,2.02h7.36Z"/>
  <path class="b" d="m137.46,56.67v1.53c.47-.62.99-1.07,1.59-1.38.6-.29,1.28-.45,2.04-.45,1.09,0,2.04.19,2.81.58.78.39,1.44.99,2,1.8.54-.82,1.13-1.4,1.8-1.8.66-.39,1.4-.58,2.21-.58,1.67,0,2.93.52,3.82,1.57.89,1.05,1.34,2.54,1.34,4.48v7.8h-3.11v-6.02c0-1.84-.19-3.09-.6-3.77-.41-.66-1.11-.99-2.12-.99s-1.79.37-2.23,1.13c-.45.74-.68,2.02-.68,3.82v5.82h-3.12v-6.02c0-1.82-.21-3.09-.62-3.75-.41-.66-1.15-.99-2.17-.99s-1.81.37-2.27,1.13c-.47.74-.7,2.02-.7,3.82v5.8h-3.05v-13.57h3.05Z"/>
  <path class="b" d="m160.26,64.45c.12.97.5,1.75,1.16,2.31.68.56,1.53.85,2.6.85.7,0,1.34-.16,1.9-.45.56-.29,1.01-.72,1.34-1.24h3.4c-.58,1.48-1.44,2.62-2.58,3.45-1.15.82-2.46,1.22-3.98,1.22-1.01,0-1.94-.17-2.79-.54-.85-.35-1.61-.89-2.29-1.59-.64-.66-1.15-1.44-1.49-2.31-.35-.87-.52-1.77-.52-2.7s.16-1.84.49-2.68c.33-.83.8-1.59,1.44-2.25.7-.74,1.48-1.3,2.35-1.69.87-.39,1.77-.58,2.7-.58,1.18,0,2.27.27,3.3.8,1.03.54,1.88,1.28,2.6,2.25.43.58.76,1.24.97,1.96.21.72.31,1.55.31,2.48,0,.08,0,.19-.02.33,0,.16-.02.27-.02.33h-10.85v.04Zm7.49-2.5c-.27-.91-.72-1.59-1.36-2.06-.64-.47-1.44-.72-2.41-.72-.83,0-1.59.25-2.25.76-.66.5-1.11,1.18-1.34,2.02h7.36Z"/>
  <path class="b" d="m183.65,57.76v-5.47h3.11v17.95h-3.11v-1.11c-.62.49-1.28.85-1.98,1.11-.7.23-1.44.37-2.25.37s-1.67-.14-2.43-.41c-.76-.27-1.44-.66-2.04-1.18-.82-.7-1.46-1.55-1.9-2.5-.45-.97-.66-2-.66-3.09,0-1.01.19-1.96.6-2.89.41-.91.99-1.73,1.73-2.39.62-.58,1.32-1.03,2.12-1.34.8-.31,1.65-.47,2.56-.47s1.65.12,2.31.33c.72.25,1.36.6,1.94,1.09Zm-.14,5.76c0-1.16-.37-2.13-1.11-2.89-.74-.78-1.65-1.16-2.76-1.16s-2.02.39-2.78,1.18c-.78.8-1.15,1.73-1.15,2.83s.39,2.1,1.16,2.85c.78.76,1.75,1.15,2.93,1.15,1.03,0,1.92-.39,2.64-1.15.7-.8,1.05-1.73,1.05-2.81Z"/>
  <path class="b" d="m191.43,65.73v.19c0,.6.16,1.09.47,1.46.31.37.7.56,1.18.56s.83-.14,1.13-.43c.29-.27.45-.64.45-1.07s-.12-.74-.33-.99c-.21-.25-.6-.52-1.15-.78-.31-.14-.78-.33-1.38-.58-.6-.25-.99-.45-1.16-.58-.5-.41-.87-.87-1.11-1.38-.23-.5-.35-1.09-.35-1.73,0-1.15.41-2.12,1.2-2.89.8-.8,1.77-1.18,2.91-1.18,1.2,0,2.17.35,2.87,1.05.7.7,1.09,1.67,1.15,2.93h-2.83v-.08c0-.43-.12-.78-.33-1.03-.23-.25-.54-.37-.95-.37-.35,0-.64.12-.87.37-.23.25-.35.54-.35.91,0,.6.6,1.15,1.82,1.65.33.14.56.23.74.31,1.16.52,1.96,1.09,2.39,1.69.43.6.64,1.42.64,2.45,0,1.26-.43,2.31-1.28,3.14-.85.83-1.94,1.24-3.24,1.24s-2.37-.43-3.16-1.3c-.8-.87-1.24-2.06-1.32-3.53l2.87-.04Z"/>
  <path class="b" d="m66.95,78.52c-.27.27-.54.54-.82.82.37-.35.72-.7,1.09-1.05h-.02c-.08.06-.17.14-.25.23Z"/>
  <path class="b" d="m68.74,57.41c.02-1.11.06-2.19.41-3.26.6-1.79,2.17-2.64,3.65-2.64.52,0,.97.37,1.07.83.08.43-.21.83-.74,1.05-.06.02-.12.04-.17.06-.12.04-.23.08-.35.12-.95.31-1.49.99-1.57,1.94-.1,1.03-.04,2.06-.1,3.07-.02.33-.16.68-.35.95-.23.37-.66.39-1.07.27-.39-.1-.62-.39-.68-.78-.06-.5-.06-1.07-.1-1.61Z"/>
  <path class="b" d="m80.59,55.27c0-.66-.08-1.36-.23-2-.8-3.36-3.51-5.78-6.93-6.21-2.62-.33-4.89.47-6.77,2.29-1.65,1.61-2.45,3.59-2.46,5.88-.02,3.96,0,7.92,0,11.88v.43c.54-.08,1.11-.06,1.71.06,2.27.43,3.92,1.65,4.58,3.96.1.33.14.66.19.99v.6c-.06.31-.1.62-.17.91-.25.95-.76,1.77-1.46,2.45-.6.58-1.2,1.16-1.8,1.77.14.1.23.17.35.25,1.88,1.34,3.98,1.84,6.25,1.44,4.02-.72,6.77-4.08,6.77-8.15-.02-5.51,0-11.02-.02-16.54Zm-2.74,8.4h-10.89c0-.1-.02-.19-.02-.27,0-2.85-.06-5.71.02-8.56.08-2.7,2.45-5.01,5.03-4.99.91,0,1.81,0,2.64.39,1.8.85,2.85,2.29,3.14,4.25.06.43.06.85.06,1.28v7.43c.02.14.02.29.02.47Z"/>
  <path class="b" d="m70.48,74.08c.08-.29.12-.6.17-.91v-.6c-.06-.33-.1-.66-.19-.99-.66-2.31-2.31-3.53-4.58-3.96-.58-.12-1.16-.14-1.71-.06v.04c-.87.19-1.61.62-2.25,1.24-.25.23-.52.14-.74-.08-1.11-1.13-2.48-1.42-3.98-1.15-2.27.43-3.92,1.65-4.58,3.96-.1.33-.14.66-.19.99v.6c.06.31.1.62.17.91.25.95.76,1.77,1.46,2.45,1.92,1.88,3.88,3.77,5.8,5.65.43.43.95.68,1.51.83h.45c.76-.16,1.3-.62,1.82-1.16.82-.85,1.63-1.67,2.46-2.5-.97.95-1.94,1.88-2.91,2.83.97-.95,1.94-1.9,2.91-2.83.27-.27.54-.54.82-.82.08-.08.17-.17.25-.25t.02,0c.6-.58,1.2-1.16,1.8-1.77.72-.66,1.22-1.48,1.48-2.43Zm-2.95-.19c-.17.41-.47.82-.78,1.15-1.49,1.53-3.01,3.05-4.52,4.56-.54.54-.89.54-1.44,0-1.51-1.51-3.03-3.03-4.52-4.56-.6-.6-.99-1.32-.99-2.19,0-1.79,1.67-2.99,3.42-2.48.68.19,1.24.6,1.73,1.09,1.07,1.03,1.13.99,2.17,0,.54-.52,1.16-.95,1.92-1.13,1.03-.23,1.92.04,2.6.83.7.8.83,1.75.41,2.74Z"/>
</svg>