<?xml version="1.0" encoding="UTF-8"?>
<svg id="a" data-name="Layer 1" xmlns="http://www.w3.org/2000/svg" viewBox="0 0 250 130">
  <defs>
    <style>
      .b {
        fill: #fff;
      }
    </style>
  </defs>
  <path class="b" d="m123.73,72.18l.41-.88h.34l-.28.81h.24v.72h-.72v-.64Zm1.22,2.83v-.49c0-.48.15-.82.55-.98h0c-.35-.16-.51-.47-.51-.98v-.09c0-.76.36-1.17,1.11-1.17h.85v.67h-.84c-.24,0-.38.12-.38.46v.29c0,.38.17.5.45.5h.29v-.53h.73v.53h.21v.67h-.21v1.55c0,.23,0,.4.08.57h-.74c-.03-.09-.05-.16-.07-.37h-.01c-.16.28-.34.44-.67.44-.55,0-.82-.38-.82-1.08Zm1.51-.02v-1.09h-.28c-.34,0-.49.16-.49.6v.48c0,.34.15.44.36.44.22,0,.37-.13.41-.42Zm1.59-2.97h-.24v-.72h.72v.64l-.41.88h-.34l.28-.81Zm3.72-.72h.74v4.05h1.22v.67h-1.96v-4.72Zm2.32,0h.74v4.72h-.74v-4.72Zm1.29,0h1.96v.67h-1.22v1.32h.96v.67h-.96v2.06h-.74v-4.72Zm2.32,0h2.02v.67h-1.28v1.25h1.02v.67h-1.02v1.45h1.28v.67h-2.02v-4.72Zm2.33,3.6v-.27h.7v.32c0,.34.15.46.38.46s.38-.12.38-.47c0-.39-.15-.64-.63-1.07-.62-.55-.82-.93-.82-1.47,0-.74.38-1.17,1.11-1.17s1.08.43,1.08,1.19v.2h-.7v-.24c0-.34-.13-.47-.37-.47s-.37.13-.37.45c0,.34.16.59.64,1.02.62.55.82.92.82,1.51,0,.77-.39,1.2-1.12,1.2s-1.09-.43-1.09-1.19Zm3.22-2.93h-.78v-.67h2.29v.67h-.78v4.05h-.74v-4.05Zm2.58,2.04l-.9-2.71h.79l.51,1.73h.01l.51-1.73h.72l-.9,2.71v2.01h-.74v-2.01Zm1.98-2.71h.74v4.05h1.22v.67h-1.96v-4.72Zm2.32,0h2.02v.67h-1.28v1.25h1.02v.67h-1.02v1.45h1.28v.67h-2.02v-4.72Zm3.4,3.6v-.27h.7v.32c0,.34.15.46.38.46s.38-.12.38-.47c0-.39-.15-.64-.63-1.07-.62-.55-.82-.93-.82-1.47,0-.74.38-1.17,1.11-1.17s1.08.43,1.08,1.19v.2h-.7v-.24c0-.34-.13-.47-.37-.47s-.37.13-.37.45c0,.34.16.59.64,1.02.62.55.82.92.82,1.51,0,.77-.39,1.2-1.12,1.2s-1.09-.43-1.09-1.19Zm3.22-2.93h-.78v-.67h2.29v.67h-.78v4.05h-.74v-4.05Zm1.79,2.93v-2.48c0-.76.4-1.19,1.13-1.19s1.13.43,1.13,1.19v2.48c0,.76-.4,1.19-1.13,1.19s-1.13-.43-1.13-1.19Zm1.51.05v-2.58c0-.34-.15-.47-.38-.47s-.38.13-.38.47v2.58c0,.34.15.47.38.47s.38-.13.38-.47Zm1.24-3.65h1.1c.77,0,1.1.36,1.1,1.09v.29c0,.49-.16.8-.49.93h0c.37.13.49.48.49,1.01v.83c0,.23,0,.4.08.57h-.76c-.04-.12-.07-.2-.07-.58v-.86c0-.44-.13-.58-.47-.58h-.26v2.02h-.74v-4.72Zm1.01,2.02c.28,0,.45-.12.45-.5v-.36c0-.34-.11-.49-.38-.49h-.34v1.35h.27Zm1.71-2.02h2.02v.67h-1.28v1.25h1.02v.67h-1.02v1.45h1.28v.67h-2.02v-4.72Z"/>
  <g>
    <path class="b" d="m120.72,88.53c0-.37.29-.66.67-.66s.66.29.66.66v5.79h3.45c.34,0,.61.27.61.61s-.27.61-.61.61h-4.11c-.38,0-.67-.29-.67-.67v-6.33Z"/>
    <path class="b" d="m127.06,88.25c0-.39.33-.64.75-.64s.75.25.75.64v.07c0,.39-.33.65-.75.65s-.75-.26-.75-.65v-.07Zm.1,2.14c0-.37.28-.66.65-.66s.66.29.66.66v4.55c0,.37-.29.65-.66.65s-.65-.28-.65-.65v-4.55Z"/>
    <path class="b" d="m130.27,90.93h-.23c-.3,0-.55-.24-.55-.54s.25-.55.55-.55h.23v-.42c0-.63.16-1.11.47-1.41s.73-.46,1.29-.46c.26,0,.48.02.66.05.24.03.46.25.46.54s-.25.56-.56.54c-.08-.01-.18-.02-.27-.02-.5,0-.76.27-.76.87v.32h1.02c.32,0,.56.24.56.54s-.25.54-.56.54h-1v4.02c0,.36-.29.65-.66.65s-.65-.29-.65-.65v-4.02Z"/>
    <path class="b" d="m136.38,95.67c-1.66,0-2.95-1.21-2.95-2.98v-.02c0-1.64,1.16-2.99,2.81-2.99,1.83,0,2.73,1.5,2.73,2.83,0,.37-.28.63-.62.63h-3.6c.14.94.81,1.46,1.65,1.46.56,0,.99-.2,1.36-.5.1-.08.18-.12.34-.12.29,0,.52.23.52.53,0,.16-.08.3-.17.4-.52.47-1.18.76-2.07.76Zm1.31-3.41c-.09-.85-.59-1.51-1.46-1.51-.81,0-1.37.62-1.49,1.51h2.95Z"/>
    <path class="b" d="m140.63,93.98c.44,0,.76.33.76.75v.11c0,.42-.33.75-.76.75s-.77-.33-.77-.75v-.11c0-.42.33-.75.77-.75Z"/>
    <path class="b" d="m145.78,92.31v-3.78c0-.37.29-.66.67-.66s.66.29.66.66v3.72c0,1.41.73,2.17,1.93,2.17s1.92-.71,1.92-2.11v-3.78c0-.37.29-.66.67-.66s.66.29.66.66v3.71c0,2.27-1.28,3.42-3.28,3.42s-3.24-1.14-3.24-3.35Z"/>
    <path class="b" d="m153.77,90.39c0-.37.28-.66.65-.66s.66.29.66.66v.28c.37-.53.9-1,1.8-1,1.29,0,2.05.87,2.05,2.2v3.07c0,.37-.28.65-.65.65s-.66-.28-.66-.65v-2.67c0-.89-.45-1.4-1.23-1.4s-1.29.53-1.29,1.43v2.64c0,.37-.29.65-.66.65s-.65-.28-.65-.65v-4.55Z"/>
    <path class="b" d="m160.37,88.19c0-.36.28-.65.65-.65s.66.29.66.65v6.75c0,.37-.29.65-.66.65s-.65-.28-.65-.65v-6.75Z"/>
    <path class="b" d="m163.17,88.25c0-.39.33-.64.75-.64s.75.25.75.64v.07c0,.39-.33.65-.75.65s-.75-.26-.75-.65v-.07Zm.1,2.14c0-.37.28-.66.65-.66s.66.29.66.66v4.55c0,.37-.29.65-.66.65s-.65-.28-.65-.65v-4.55Z"/>
    <path class="b" d="m166.09,90.39c0-.37.28-.66.65-.66s.66.29.66.66v.27c.37-.51.87-.99,1.75-.99.83,0,1.41.4,1.72,1.01.46-.61,1.07-1.01,1.94-1.01,1.25,0,2.01.79,2.01,2.2v3.07c0,.37-.28.65-.65.65s-.66-.28-.66-.65v-2.67c0-.91-.42-1.4-1.16-1.4s-1.23.5-1.23,1.43v2.64c0,.37-.29.65-.65.65s-.66-.28-.66-.65v-2.68c0-.89-.44-1.39-1.16-1.39s-1.23.54-1.23,1.43v2.64c0,.37-.29.65-.66.65s-.65-.28-.65-.65v-4.55Z"/>
    <path class="b" d="m176.18,88.25c0-.39.33-.64.75-.64s.75.25.75.64v.07c0,.39-.33.65-.75.65s-.75-.26-.75-.65v-.07Zm.1,2.14c0-.37.28-.66.65-.66s.66.29.66.66v4.55c0,.37-.29.65-.66.65s-.65-.28-.65-.65v-4.55Z"/>
    <path class="b" d="m179.37,93.95v-3.03h-.22c-.32,0-.57-.25-.57-.57s.25-.57.57-.57h.22v-.98c0-.36.29-.65.66-.65s.65.29.65.65v.98h1.03c.32,0,.58.25.58.57s-.26.57-.58.57h-1.03v2.82c0,.51.26.72.71.72.15,0,.28-.03.33-.03.29,0,.56.24.56.54,0,.24-.16.44-.35.51-.28.1-.56.15-.9.15-.97,0-1.65-.42-1.65-1.69Z"/>
    <path class="b" d="m185.83,95.67c-1.67,0-2.95-1.21-2.95-2.98v-.02c0-1.64,1.16-2.99,2.81-2.99,1.83,0,2.73,1.5,2.73,2.83,0,.37-.28.63-.62.63h-3.6c.14.94.81,1.46,1.65,1.46.56,0,.99-.2,1.36-.5.1-.08.19-.12.34-.12.29,0,.52.23.52.53,0,.16-.08.3-.17.4-.52.47-1.18.76-2.07.76Zm1.31-3.41c-.09-.85-.59-1.51-1.46-1.51-.81,0-1.37.62-1.49,1.51h2.95Z"/>
    <path class="b" d="m195.19,94.94c0,.37-.29.65-.65.65s-.66-.28-.66-.65v-.36c-.42.6-1.02,1.08-1.96,1.08-1.35,0-2.67-1.08-2.67-2.98v-.02c0-1.9,1.29-2.98,2.67-2.98.95,0,1.55.47,1.96,1.01v-2.49c0-.37.29-.65.65-.65s.66.28.66.65v6.75Zm-4.61-2.29v.02c0,1.11.76,1.84,1.65,1.84s1.66-.74,1.66-1.84v-.02c0-1.11-.78-1.84-1.66-1.84s-1.65.7-1.65,1.84Z"/>
  </g>
  <g>
    <rect class="b" x="166.97" y="34.33" width="4.72" height="5.2" rx="2.36" ry="2.36"/>
    <rect class="b" x="175.61" y="34.33" width="4.72" height="5.2" rx="2.36" ry="2.36"/>
    <rect class="b" x="184.24" y="34.33" width="4.72" height="5.2" rx="2.36" ry="2.36"/>
  </g>
  <path class="b" d="m121.6,78h46.28c.99,0,1.8-.81,1.8-1.8v-6.08c0-.07,0-.15-.01-.22.6.49.98,1.24.98,2.08v4.3c0,1.49-1.21,2.69-2.69,2.69h-46.74s.38.01.38-.3v-.67Z"/>
  <path class="b" d="m170.66,74.63h21.55c.35,0,5.17-.9,5.17-6.55v-26.3s.47.94.47,2.59v24.88s.29,6.2-5.59,6.2h-21.61v-.83Z"/>
  <g>
    <path class="b" d="m179.32,50.9c-.8-.42-1.53.05-1.95.7-.27.42-.43,1.13-.43,1.13h3.44s-.26-1.42-1.06-1.83Z"/>
    <path class="b" d="m161.95,50.9c-.8-.42-1.53.05-1.95.7-.27.42-.43,1.13-.43,1.13h3.44s-.26-1.42-1.06-1.83Z"/>
    <path class="b" d="m107.72,50.9c-.8-.42-1.53.05-1.95.7-.27.42-.43,1.13-.43,1.13h3.44s-.26-1.42-1.06-1.83Z"/>
    <path class="b" d="m77.9,50.9c-.8-.42-1.53.05-1.95.7-.27.42-.43,1.13-.43,1.13h3.44s-.26-1.42-1.06-1.83Z"/>
    <path class="b" d="m146.65,51.72c-1.31-.81-3.34.11-4.53,2.05-1.19,1.94-1.09,4.16.22,4.96,1.31.81,3.34-.11,4.53-2.05,1.19-1.94,1.09-4.16-.22-4.96Zm-.36,4.75c-.24.27-.68.33-1.02.15-.35-.18-.48-.65-.55-.87-.06-.16-.2-.33-.3-.43-.04.1-.09.27-.06.57.04.52.03.87-.26,1.14-.3.27-.75.28-1.02.04-.27-.24-.33-.68-.15-1.02s.65-.48.87-.55c.17-.06.34-.22.44-.32-.09-.04-.27-.1-.6-.07-.52.04-.87.03-1.14-.26-.27-.3-.28-.75-.04-1.02.24-.27.68-.33,1.02-.15.35.18.48.65.55.87.06.18.23.36.33.46.04-.09.09-.27.07-.58-.04-.52-.03-.87.26-1.14.3-.27.75-.28,1.02-.04.27.24.33.68.15,1.02-.18.35-.65.48-.87.55-.17.06-.34.21-.44.32.1.04.27.08.56.06.52-.04.87-.03,1.14.26.27.3.28.75.04,1.02Z"/>
    <path class="b" d="m190.29,37.12h-.88v1.36c0,.86-.7,1.56-1.56,1.56h-2.53c-.86,0-1.56-.7-1.56-1.56v-1.36h-2.99v1.36c0,.86-.7,1.56-1.56,1.56h-2.53c-.86,0-1.56-.7-1.56-1.56v-1.36h-2.99v1.36c0,.86-.7,1.56-1.56,1.56h-2.53c-.86,0-1.56-.7-1.56-1.56v-1.36H57.55c-2.98,0-5.4,2.42-5.4,5.4v25.22c0,2.98,2.42,5.4,5.4,5.4h19.69v-3.98c0-2.05,1.66-3.71,3.71-3.71h36.96c1.74,0,3.21,1.2,3.6,2.83h45.65c1.49,0,2.69,1.21,2.69,2.69v2.17h20.45c2.98,0,5.4-2.42,5.4-5.4v-25.22c0-2.98-2.42-5.4-5.4-5.4Zm-121.44,23.93h-.95l-2.5-8.76-2.85,8.76h-1.06s-3.37-12.39-3.62-13.32c-.25-.94-1.26-.97-1.26-.97v-1.23h3.81v1.23h-.34l2.6,9.33s.4-1.14.94-2.84.79-3.38.81-4.88-.89-1.62-.89-1.62h-.59v-1.2h3.84v1.25h-.44l2.67,9.54s2.17-7.33,2.35-8.39c.18-1.06-.61-1.23-.61-1.23h-.88v-1.28h4.7v1.31s0,0,0,0h0s-.06-.05-.49,0c-.53.08-1.13,1.67-1.13,1.67l-4.1,12.6Zm12.58-3.54s-1.8,2.9-3.78,3.16c-1.98.26-3.68-1.27-4.11-3.71-.43-2.44.37-4.9,1.89-6.57,1.52-1.66,4.03-1.36,5,.56.81,1.6.66,3,.66,3h-5.74s-.27,1.57.46,3.06c.81,1.65,2.31,1.73,3.25,1.24,1.32-.69,2.37-2.83,2.37-2.83v2.1Zm5.3,2.98h-4.83v-1.11h.49s.86.06.86-.76v-11.97s-.17-.35-.53-.19c-.39.18-.83.45-.83.45v-1.47l3.52-1.58h.31v1.2l-.47.2v12.98s.09,1,.81,1h.66v1.24Zm5.41,0h-4.83v-1.11h.49s.86.06.86-.76v-11.97s-.17-.35-.53-.19c-.39.18-.83.45-.83.45v-1.47l3.52-1.58h.31v1.2l-.47.2v12.98s.09,1,.81,1h.66v1.24Zm10.74,0h-3.82v-1.23h.45v-6.92s.07-1.24-.69-1.1c0,0-1.13.34-1.84,1.94-.57,1.29-.7,2.16-.73,2.45v2.62s.09,1,.82,1h.66v1.24h-4.83v-1.11h.49s.86.06.86-.76v-6.95s-.17-.35-.53-.19c-.39.18-.83.45-.83.45v-1.47l2.89-1.37c.21-.1.46.05.46.29v2.79s1.18-2.21,2.39-2.75c1.21-.54,2.84,0,2.84,1.84v7.18s-.02.84.65.84h.76v1.2Zm8.38-2.98s-1.8,2.9-3.78,3.16c-1.98.26-3.68-1.27-4.11-3.71-.43-2.44.37-4.9,1.89-6.57,1.52-1.66,4.03-1.36,5,.56.81,1.6.66,3,.66,3h-5.74s-.27,1.57.46,3.06c.81,1.65,2.31,1.73,3.25,1.24,1.32-.69,2.37-2.83,2.37-2.83v2.1Zm6.91.07c-.1,1.45-.99,2.44-2.02,2.94-1.12.54-2.68.32-3.13,0-.45-.32-.88-.41-.88-.41v-3.73h1.26v1.22c0,.63.57,1.57,1.32,1.72.75.15,1.45-.18,1.57-1.24s-.22-1.3-1.8-2.64c-1.58-1.34-1.89-1.35-2.08-2.8-.15-1.17.66-2.86,2.47-3.32,1.81-.46,2.9.54,2.9.54v3.47h-1.34v-.72c0-.49-.21-1.24-.59-1.63-.37-.38-1.05-.68-1.53.07-.25.4-.09,1.18.18,1.42.68.62,2.19,1.79,2.82,2.36.66.6.94,1.29.84,2.74Zm7.18,0c-.1,1.45-.99,2.44-2.02,2.94-1.12.54-2.68.32-3.13,0-.45-.32-.88-.41-.88-.41v-3.73h1.26v1.22c0,.63.57,1.57,1.32,1.72.75.15,1.45-.18,1.57-1.24s-.22-1.3-1.8-2.64-1.89-1.35-2.08-2.8c-.15-1.17.66-2.86,2.47-3.32,1.81-.46,2.9.54,2.9.54v3.47h-1.34v-.72c0-.49-.21-1.24-.59-1.63-.37-.38-1.05-.68-1.53.07-.25.4-.09,1.18.18,1.42.68.62,2.19,1.79,2.82,2.36.66.6.94,1.29.84,2.74Zm13.08-3.74h-3.34v4.05c0,.46.07,1.02.67,1.26.25.1.84.09.84.09v1.3h-5.17v-1.28s1.39.3,1.39-1.14v-10.39s.02-.96-.67-.96h-.68v-1.32h6.83s.33.04.33-.19v-.3h1.04v5.03h-1.36v-1.18s-.02-1.06-.87-1.64c-.33-.22-.91-.38-1.23-.38h-1.1v3.07s.07,2.35,1.82,2.35h1.51v1.63Zm10.22,1.41c-.24,3.22-2.16,5.84-4.59,5.84s-4.4-2.61-4.4-5.84,2.61-5.84,5.04-5.84,4.18,2.65,3.95,5.84Zm8.01-1.6h-1.35v-1.03s.13-.88-.55-1.07-1.95,1.96-1.95,4.01v2.13s-.09,1.13.55,1.43c.33.15,1.28.12,1.28.12l.03,1.3h-5.2v-1.27s1.32.29,1.32-1.17v-6.53s-.13-.27-.48-.22-.88.5-.88.5v-1.23l2.36-1.4h1v2.53h.1s.69-1.36,1.44-2.08c.75-.72,2.33-.5,2.33.08v3.9Zm8.82,3.87s-1.8,2.9-3.78,3.16c-1.98.26-3.68-1.27-4.11-3.71-.43-2.44.37-4.9,1.89-6.57,1.52-1.66,4.03-1.36,5,.56.81,1.6.66,3,.66,3h-5.74s-.27,1.57.46,3.06c.81,1.65,2.31,1.73,3.25,1.24,1.32-.69,2.37-2.83,2.37-2.83v2.1Zm8.09-5.28c-.55,1.5-3.02,8.82-3.02,8.82h-1.03l-2.48-8.85s-.37-1.42-1.18-1.42h-.28v-1.25h3.59v1.33h-.35l1.68,5.94,1.31-4.06s.34-.93.05-1.45c-.29-.51-.6-.55-.81-.55h-.47v-1.25h4.56v1.22s-1.02.02-1.57,1.52Zm9.29,5.28s-1.8,2.9-3.78,3.16c-1.98.26-3.68-1.27-4.11-3.71-.43-2.44.37-4.9,1.89-6.57,1.52-1.66,4.03-1.36,5,.56.81,1.6.66,3,.66,3h-5.74s-.27,1.57.46,3.06c.81,1.65,2.31,1.73,3.25,1.24,1.32-.69,2.37-2.83,2.37-2.83v2.1Zm8.14-3.87h-1.35v-1.03s.13-.88-.55-1.07-1.95,1.96-1.95,4.01v2.13s-.09,1.13.55,1.43c.33.15,1.28.12,1.28.12l.03,1.3h-5.2v-1.27s1.32.29,1.32-1.17v-6.53s-.13-.27-.48-.22-.88.5-.88.5v-1.23l2.36-1.4h1v2.53h.1s.69-1.36,1.44-2.08c.75-.72,2.33-.5,2.33.08v3.9Zm1.2-5.16c-.87,0-1.58-.71-1.58-1.58s.71-1.58,1.58-1.58,1.58.71,1.58,1.58-.71,1.58-1.58,1.58Z"/>
    <path class="b" d="m192.76,46.57c0-.26-.17-.4-.5-.4h-.44v.81h.44c.33,0,.5-.15.5-.41Z"/>
    <path class="b" d="m192.2,45.48c-.78,0-1.42.64-1.42,1.42s.64,1.42,1.42,1.42,1.42-.64,1.42-1.42-.64-1.42-1.42-1.42Zm.56,2.26l-.39-.55s-.07,0-.11,0h-.45v.55h-.26v-1.8h.7c.47,0,.75.24.75.63,0,.28-.14.48-.4.57l.43.61h-.28Z"/>
  </g>
  <path class="b" d="m118.95,66.64h-38.29c-1.26,0-2.28,1.02-2.28,2.28v8.53c0,1.26,1.02,2.28,2.28,2.28h38.29c1.26,0,2.28-1.02,2.28-2.28v-8.53c0-1.26-1.02-2.28-2.28-2.28Zm-33.52,5.14h-1.39v-1.08c0-.61-.29-.87-.73-.87s-.73.25-.73.87v5.21c0,.61.29.85.73.85s.73-.24.73-.85v-1.43h1.39v1.32c0,1.44-.75,2.29-2.16,2.29s-2.16-.85-2.16-2.29v-5.01c0-1.44.75-2.29,2.16-2.29s2.16.85,2.16,2.29v.99Zm5.12,6.18h-1.47v-4.2h-1.57v4.2h-1.47v-9.33h1.47v3.8h1.57v-3.8h1.47v9.33Zm4.82-8h-2.53v2.47h2.01v1.33h-2.01v2.87h2.53v1.33h-4v-9.33h4v1.33Zm6.65,8h-1.39v-7.06h-.03l-1.07,7.06h-1.23l-1.07-7.06h-.03v7.06h-1.28v-9.33h2.09l.93,6.68h.03l.93-6.68h2.09v9.33Zm2.29,0h-1.47v-9.33h1.47v9.33Zm2.73.13c-1.44,0-2.16-.85-2.16-2.35v-.53h1.39v.64c0,.67.29.91.76.91s.76-.24.76-.93c0-.77-.29-1.27-1.25-2.11-1.23-1.08-1.63-1.84-1.63-2.91,0-1.47.76-2.32,2.19-2.32s2.13.85,2.13,2.35v.39h-1.39v-.48c0-.67-.27-.92-.73-.92s-.73.25-.73.89c0,.68.31,1.17,1.27,2.01,1.23,1.08,1.61,1.83,1.61,2.99,0,1.52-.77,2.37-2.21,2.37Zm6.93-8.13h-1.53v8h-1.47v-8h-1.53v-1.33h4.53v1.33Zm2.35,8.13c-1.44,0-2.16-.85-2.16-2.35v-.53h1.39v.64c0,.67.29.91.76.91s.76-.24.76-.93c0-.77-.29-1.27-1.25-2.11-1.23-1.08-1.63-1.84-1.63-2.91,0-1.47.76-2.32,2.19-2.32s2.13.85,2.13,2.35v.39h-1.39v-.48c0-.67-.27-.92-.73-.92s-.73.25-.73.89c0,.68.31,1.17,1.27,2.01,1.23,1.08,1.61,1.83,1.61,2.99,0,1.52-.77,2.37-2.21,2.37Z"/>
</svg>