<?xml version="1.0" encoding="UTF-8"?>
<svg id="a" data-name="Layer 1" xmlns="http://www.w3.org/2000/svg" viewBox="0 0 250 130">
  <defs>
    <style>
      .b {
        fill: #fff;
      }

      .c {
        fill: #cecece;
      }

      .d {
        fill: #a8a8a8;
      }
    </style>
  </defs>
  <g>
    <polygon class="d" points="37.99 41.1 37.99 53.75 50.59 66.17 50.59 53.64 37.99 41.1"/>
    <rect class="b" x="52.48" y="49.08" width="9.11" height="9.11" transform="translate(54.63 -24.62) rotate(45)"/>
    <g>
      <polygon class="c" points="50.59 53.64 50.59 40.75 57.04 47.19 50.59 53.64"/>
      <polygon class="c" points="50.59 66.35 50.59 53.46 57.04 59.9 50.59 66.35"/>
      <polygon class="c" points="50.59 79.06 50.59 66.17 57.04 72.62 50.59 79.06"/>
    </g>
    <rect class="b" x="52.48" y="61.62" width="9.11" height="9.11" transform="translate(63.5 -20.95) rotate(45)"/>
  </g>
  <rect class="b" x="75.77" y="39.41" width="6.97" height=".99"/>
  <rect class="b" x="88.44" y="46.85" width="6.97" height=".99"/>
  <rect class="b" x="78.9" y="39.67" width=".99" height="12.03"/>
  <rect class="b" x="78.55" y="69.84" width=".99" height="5.05"/>
  <rect class="b" x="88.26" y="39.36" width=".99" height="12.34"/>
  <polygon class="b" points="108.94 51.71 102.08 51.71 102.08 39.41 108.94 39.41 108.94 40.4 103.07 40.4 103.07 50.72 108.94 50.72 108.94 51.71"/>
  <rect class="b" x="94.6" y="39.36" width=".99" height="12.34"/>
  <rect class="b" x="102.97" y="46.85" width="5" height=".99"/>
  <polygon class="b" points="79.05 71.7 75.13 62.85 76.03 62.45 79.05 69.26 82.06 62.45 82.96 62.85 79.05 71.7"/>
  <polygon class="b" points="88.01 74.94 86.95 74.92 91.85 62.39 96.74 74.92 95.66 74.89 91.85 65.11 88.01 74.94"/>
  <polygon class="b" points="150.99 74.94 149.93 74.92 154.83 62.39 159.72 74.92 158.64 74.89 154.83 65.11 150.99 74.94"/>
  <polygon class="b" points="175.75 74.94 174.7 74.92 179.59 62.39 184.48 74.92 183.4 74.89 179.59 65.11 175.75 74.94"/>
  <polygon class="b" points="189.83 74.94 188.78 74.92 193.67 62.39 198.57 74.92 197.49 74.89 193.67 65.11 189.83 74.94"/>
  <g>
    <path class="b" d="m102.43,74.89h-.99v-12.44h4.32c2.35,0,4.26,1.91,4.26,4.26s-1.91,4.26-4.26,4.26h-3.33v3.92Zm0-4.91h3.33c1.8,0,3.27-1.47,3.27-3.27s-1.47-3.27-3.27-3.27h-3.33v6.54Z"/>
    <polygon class="b" points="108.72 74.89 105.54 70.2 104.72 70.76 107.53 74.89 108.72 74.89"/>
  </g>
  <g>
    <path class="b" d="m204.42,74.89h-.99v-12.44h4.32c2.35,0,4.26,1.91,4.26,4.26s-1.91,4.26-4.26,4.26h-3.33v3.92Zm0-4.91h3.33c1.8,0,3.27-1.47,3.27-3.27s-1.47-3.27-3.27-3.27h-3.33v6.54Z"/>
    <polygon class="b" points="210.71 74.89 207.53 70.2 206.71 70.76 209.52 74.89 210.71 74.89"/>
  </g>
  <polygon class="b" points="122.8 74.98 122.1 74.98 116.32 64.83 116.32 74.89 115.33 74.89 115.33 62.46 115.99 62.46 121.81 73.01 121.81 62.46 122.8 62.46 122.8 74.98"/>
  <path class="b" d="m140.96,71.03h-3.41v-8.57h3.41c2.36,0,4.28,1.92,4.28,4.28s-1.92,4.28-4.28,4.28Zm-2.42-.99h2.42c1.82,0,3.3-1.48,3.3-3.3s-1.48-3.3-3.3-3.3h-2.42v6.59Z"/>
  <path class="b" d="m142.86,74.82h-5.31v-4.78h5.31c1.32,0,2.39,1.07,2.39,2.39s-1.07,2.39-2.39,2.39Zm-4.32-.99h4.32c.77,0,1.4-.63,1.4-1.4s-.63-1.4-1.4-1.4h-4.32v2.8Z"/>
  <polygon class="b" points="164.86 63.54 164.86 62.6 169.95 62.6 169.95 63.76 165.3 73.95 169.34 73.95 169.34 74.94 164.32 74.94 164.32 74.03 169.03 63.54 164.86 63.54"/>
  <g>
    <path class="b" d="m138.57,81.1l-.87,7.1h-.47l.87-7.1h.47Z"/>
    <path class="b" d="m140.57,84.26l-.48,3.94h-.43l.48-3.94h-.48l.05-.4h.48l.19-1.55h.43l-.19,1.55h.76l-.05.4h-.76Z"/>
    <path class="b" d="m143.39,80.97l.4.13-1.04,2.13-.27-.11.9-2.15Z"/>
    <path class="b" d="m146.37,84.65c-.04-.13-.13-.27-.24-.35-.03-.02-.19-.14-.48-.14-.31,0-.5.13-.61.23-.12.12-.19.3-.19.48,0,.13.04.28.17.41.05.05.17.15.45.27l.33.14c.42.17.57.32.64.38.23.24.29.54.29.77,0,.52-.23.85-.38,1.01-.22.23-.61.46-1.19.46-.26,0-.68-.05-1-.37-.19-.19-.33-.49-.38-.78l.43-.13c.01.06.05.37.29.61.14.14.35.27.68.27s.61-.1.8-.28c.18-.18.31-.46.31-.73,0-.19-.05-.37-.2-.52-.06-.06-.2-.17-.52-.31l-.26-.11c-.22-.1-.5-.27-.63-.39-.17-.17-.26-.36-.26-.63,0-.33.12-.6.32-.8.28-.29.6-.38.96-.38.21,0,.47.03.7.19.14.1.3.25.37.51l-.38.19Z"/>
    <path class="b" d="m151.48,84.26l-.48,3.94h-.43l.48-3.94h-.48l.05-.4h.48l.19-1.55h.43l-.19,1.55h.76l-.05.4h-.76Z"/>
    <path class="b" d="m153.77,83.86l-.53,4.34h-.43l.53-4.34h.43Zm-.33-1.15s-.08-.12-.08-.23c0-.15.05-.27.14-.34.1-.1.21-.12.29-.12.12,0,.2.05.24.1.07.07.1.17.1.24,0,.12-.03.22-.13.32-.08.08-.18.13-.31.13-.14,0-.21-.06-.24-.1Z"/>
    <path class="b" d="m155.52,83.86h.43l-.06.54c.13-.22.29-.36.43-.45.22-.14.47-.19.71-.19.29,0,.59.06.8.22.15.11.31.3.38.56.07-.17.2-.38.46-.55.24-.17.5-.23.83-.23.57,0,.86.24.97.35.23.24.3.54.3.81,0,.07,0,.28-.05.72l-.31,2.55h-.43l.31-2.52c.01-.09.05-.46.05-.61,0-.3-.1-.51-.23-.66-.2-.21-.47-.24-.67-.24-.26,0-.52.05-.76.28-.3.29-.39.74-.46,1.25l-.31,2.51h-.43l.31-2.5c.02-.17.05-.46.05-.62,0-.21-.02-.47-.22-.67-.13-.13-.34-.24-.67-.24s-.6.13-.77.31c-.27.28-.4.72-.47,1.29l-.3,2.44h-.43l.53-4.34Z"/>
    <path class="b" d="m162.6,86.08c-.1.56.14,1.11.44,1.4.17.17.51.43,1.1.43.34,0,.73-.1,1.03-.31.23-.17.45-.44.56-.68l.33.21c-.18.32-.47.66-.78.86-.22.15-.6.32-1.16.32s-1.05-.15-1.45-.57c-.38-.4-.54-.92-.54-1.48,0-.81.3-1.45.72-1.87.34-.34.84-.63,1.55-.63.57,0,1.05.2,1.36.5.49.47.59,1.15.53,1.82h-3.7Zm3.28-.4c-.01-.46-.2-.86-.44-1.11-.2-.21-.53-.4-1.03-.4-.63,0-1.03.3-1.24.52-.21.22-.42.55-.5.99h3.21Z"/>
    <path class="b" d="m171.17,84.26l-.48,3.94h-.43l.48-3.94h-.48l.05-.4h.48l.19-1.55h.43l-.19,1.55h.76l-.05.4h-.76Z"/>
    <path class="b" d="m176.55,84.37c.32.32.54.8.54,1.5,0,.83-.32,1.44-.71,1.81-.35.33-.9.64-1.78.64-.59,0-1.12-.16-1.53-.6-.34-.35-.57-.89-.57-1.51,0-.67.28-1.36.72-1.8.46-.44,1.11-.65,1.71-.65s1.23.22,1.62.61Zm-.54,3.05c.31-.29.64-.78.64-1.51s-.34-1.11-.46-1.23c-.27-.28-.69-.51-1.3-.51-.55,0-1,.2-1.32.49-.42.37-.63.95-.63,1.49,0,.51.19.98.49,1.29.21.22.6.48,1.23.48.53,0,.98-.16,1.34-.49Z"/>
    <path class="b" d="m184.89,84.88c-.16-.18-.38-.37-.6-.49-.23-.13-.52-.22-.86-.22-.81,0-1.28.39-1.44.56-.4.4-.57,1-.57,1.49,0,.43.16.89.45,1.21.37.4.86.48,1.22.48s.61-.05.89-.2c.32-.17.53-.38.68-.57l-.07.62c-.17.14-.4.3-.62.39-.35.15-.73.17-.9.17-.74,0-1.21-.25-1.53-.57-.32-.33-.56-.84-.56-1.52,0-.79.33-1.43.72-1.81.4-.39.99-.65,1.72-.65.49,0,.84.15.95.19.2.08.42.22.6.36l-.07.56Z"/>
    <path class="b" d="m186.88,80.44h.43l-.51,4.1c.13-.21.31-.4.48-.52.21-.15.51-.26.87-.26.39,0,.73.12.96.33.44.4.37,1,.33,1.37l-.34,2.73h-.43l.34-2.73c.04-.36.05-.77-.22-1.04-.14-.14-.37-.26-.69-.26-.45,0-.73.19-.91.37-.19.19-.46.59-.55,1.4l-.28,2.26h-.43l.96-7.76Z"/>
    <path class="b" d="m194.59,83.86h.43l-.53,4.34h-.43l.09-.67c-.17.23-.38.44-.64.56-.26.13-.59.22-1,.22-.5,0-.98-.12-1.38-.5-.27-.24-.63-.73-.63-1.57,0-.71.24-1.42.73-1.88.32-.31.82-.6,1.61-.6.34,0,.72.06,1.05.29.26.17.47.41.6.66l.11-.85Zm-3.06.79c-.35.35-.59.95-.59,1.56,0,.55.21,1.02.5,1.3.36.34.8.4,1.11.4.4,0,.72-.1,1.03-.32.64-.47.79-1.28.79-1.74,0-.52-.17-.97-.45-1.25-.18-.19-.54-.44-1.17-.44-.48,0-.89.15-1.22.48Z"/>
    <path class="b" d="m196.76,83.86h.43l-.08.68c.15-.28.35-.45.5-.54.26-.17.53-.23.86-.23.5,0,.81.17.98.34.16.16.33.41.33.86,0,.21-.05.65-.06.77l-.31,2.47h-.43l.31-2.53c.03-.3.05-.45.05-.57,0-.2-.04-.46-.23-.66-.12-.13-.35-.27-.73-.27-.32,0-.63.08-.89.34-.32.31-.46.78-.54,1.44l-.28,2.26h-.43l.53-4.34Z"/>
    <path class="b" d="m205.68,83.86l-.51,4.21c-.07.6-.19,1.38-.71,1.93-.37.39-.97.65-1.7.65s-1.18-.26-1.44-.51c-.3-.29-.53-.78-.54-1.35h.45c.01.35.13.76.38,1.02.2.21.56.44,1.2.44.7,0,1.11-.28,1.31-.48.41-.42.55-1.12.63-1.69l.07-.62c-.18.27-.4.47-.7.62-.35.18-.69.24-1.01.24-.56,0-1.06-.14-1.46-.55-.31-.33-.55-.84-.55-1.52s.22-1.34.7-1.83c.49-.51,1.03-.65,1.64-.65.34,0,.78.04,1.18.3.11.07.34.24.54.55l.1-.76h.43Zm-3.5.79c-.38.36-.62.98-.62,1.6s.24.98.46,1.21c.3.32.68.46,1.19.46.41,0,.86-.11,1.24-.5.36-.38.57-.98.57-1.6,0-.56-.2-.98-.46-1.22-.27-.27-.69-.43-1.13-.43-.47,0-.93.16-1.27.48Z"/>
    <path class="b" d="m207.35,86.08c-.1.56.14,1.11.44,1.4.17.17.51.43,1.1.43.34,0,.73-.1,1.03-.31.23-.17.45-.44.56-.68l.33.21c-.18.32-.47.66-.78.86-.22.15-.6.32-1.16.32s-1.05-.15-1.45-.57c-.38-.4-.54-.92-.54-1.48,0-.81.3-1.45.72-1.87.34-.34.84-.63,1.55-.63.57,0,1.05.2,1.36.5.49.47.59,1.15.53,1.82h-3.7Zm3.28-.4c-.01-.46-.2-.86-.44-1.11-.2-.21-.53-.4-1.03-.4-.63,0-1.03.3-1.25.52-.21.22-.41.55-.5.99h3.21Z"/>
  </g>
</svg>