<?xml version="1.0" encoding="UTF-8"?>
<svg id="a" data-name="Layer 1" xmlns="http://www.w3.org/2000/svg" viewBox="0 0 250 130">
  <defs>
    <style>
      .b {
        fill: #fff;
      }
    </style>
  </defs>
  <path class="b" d="m83.25,41.68c-1.24,0-2.46.28-3.57.84-1.59.79-2.87,2.09-3.65,3.68v.02s-.05.09-.07.14l-2.22,4.69h-14.73c-.88.02-1.72.38-2.34,1.01-.62.63-.96,1.47-.96,2.36s.35,1.73.96,2.36c.62.63,1.46.99,2.34,1.01h11.54l-6.86,14.48h-5.27v2.35h4.15l-.95,2.01h-3.2c-.65,0-1.29.17-1.85.5-.56.33-1.03.8-1.35,1.37-.32.57-.48,1.21-.47,1.86.01.65.19,1.29.53,1.85.34.56.82,1.01,1.39,1.33.57.31,1.22.46,1.87.44.65-.02,1.29-.21,1.84-.56.55-.35,1-.83,1.3-1.41l16.39-34.62.06-.14c.55-1.13,1.46-2.04,2.59-2.6.78-.39,1.65-.59,2.53-.59.76-.03,1.53.1,2.24.37.71.27,1.37.69,1.92,1.22.55.53.99,1.17,1.29,1.87.3.7.45,1.46.45,2.23s-.15,1.52-.45,2.23c-.3.7-.74,1.34-1.29,1.87-.55.53-1.2.95-1.92,1.22-.71.27-1.48.4-2.24.37h-4.15l.96-2.02h3.34c.65-.03,1.27-.22,1.82-.56.55-.35.99-.83,1.29-1.4.3-.57.44-1.21.42-1.86-.03-.65-.22-1.27-.57-1.82-.35-.55-.83-.99-1.4-1.29-.57-.3-1.21-.44-1.86-.41-.65.03-1.27.23-1.82.58-.54.35-.99.83-1.28,1.41v.02s-11.78,24.87-11.78,24.87l-4.6,9.71v.02s-.05.08-.07.13c-.57,1.16-1.51,2.09-2.68,2.65-.76.36-1.59.54-2.43.54-1.51,0-2.95-.6-4.02-1.67-1.07-1.07-1.67-2.51-1.67-4.02s.6-2.95,1.67-4.02c1.07-1.07,2.51-1.67,4.02-1.67v-2.35c-1.2,0-2.39.27-3.48.8-1.08.52-2.04,1.28-2.79,2.22-.75.94-1.28,2.04-1.55,3.21-.27,1.17-.27,2.39-.01,3.57.26,1.17.79,2.28,1.53,3.22.75.95,1.69,1.71,2.78,2.24s2.27.81,3.47.82c1.2,0,2.39-.25,3.48-.77,1.65-.78,2.99-2.1,3.8-3.74h0s2.29-4.86,2.29-4.86h14.7c.45,0,.89-.07,1.3-.24.41-.17.79-.41,1.11-.72.32-.31.57-.69.74-1.1.17-.41.26-.85.26-1.3s-.09-.89-.26-1.3c-.17-.41-.43-.78-.74-1.1-.32-.31-.7-.56-1.11-.72-.41-.17-.86-.25-1.3-.24h-11.53l6.86-14.49h5.27c2.13,0,4.18-.85,5.68-2.35,1.51-1.51,2.35-3.55,2.35-5.68s-.85-4.18-2.35-5.68c-1.51-1.51-3.55-2.35-5.68-2.35h0Zm-24.25,13.73c-.27,0-.52-.11-.71-.3-.19-.19-.3-.45-.3-.71s.11-.52.3-.71c.19-.19.45-.3.71-.3h13.62l-.96,2.02h-12.66Zm-.58,26.2c-.18,0-.35-.03-.52-.09-.16-.06-.32-.16-.44-.28-.13-.12-.23-.27-.3-.43-.07-.16-.1-.34-.1-.52s.04-.35.1-.52.17-.31.3-.43c.13-.12.28-.22.44-.28.16-.06.34-.09.52-.09h2.09l-.91,1.93c-.11.22-.28.4-.49.52-.21.13-.44.19-.69.19Zm24.83-33.21c.35,0,.68.14.92.38.25.24.39.57.4.92,0,.35-.12.68-.36.93-.24.25-.56.4-.91.41h-2.14l.91-1.93c.11-.22.28-.4.48-.52.21-.13.44-.19.69-.19h0Zm-.6,26.21c.27,0,.52.11.71.29.19.19.29.44.29.71s-.11.52-.29.71-.44.29-.71.29h-13.59l.95-2.01h12.64Z"/>
  <path class="b" d="m101.18,58.5c0-.11.01-.23.05-.33.04-.11.1-.2.18-.28.17-.15.4-.23.63-.22h9.93c.22,0,.43.07.6.21.09.08.16.17.21.28.05.11.07.23.06.35v1.88c0,.07,0,.14-.01.21-.02.1-.06.19-.13.27l-6.47,7.05h5.85c.12-.02.24,0,.35.03.11.04.22.1.3.19.08.08.15.19.19.3.04.11.05.23.03.35v1.67c0,.23-.09.45-.24.63-.07.09-.17.17-.28.22-.11.05-.23.08-.35.07h-10.36c-.12,0-.23-.02-.34-.07-.11-.05-.2-.12-.28-.21-.16-.17-.25-.4-.25-.64v-1.48c0-.09,0-.19.01-.29.01-.11.07-.22.15-.29.48-.54,1.02-1.12,1.61-1.74.59-.62,1.18-1.24,1.78-1.88l1.78-1.89c.59-.63,1.12-1.21,1.61-1.75h-5.77c-.12.01-.24,0-.35-.04-.11-.04-.22-.11-.3-.19-.08-.09-.15-.19-.18-.31-.04-.11-.05-.24-.03-.36v-1.73Z"/>
  <path class="b" d="m119.73,58.31v12.43c0,.43-.23.64-.7.64h-2.43c-.09.01-.18,0-.26-.02-.08-.03-.16-.07-.22-.14s-.11-.14-.14-.22-.04-.17-.02-.26v-12.43c0-.18.05-.35.17-.49.06-.06.14-.11.22-.14.08-.03.17-.04.26-.04h2.43c.18,0,.34.07.48.18.07.06.13.13.17.22.04.09.06.18.05.27Z"/>
  <path class="b" d="m125.83,57.63c.22-.01.44.03.63.14.14.1.26.23.32.39.08.18.14.38.17.57.04.21.08.44.14.69.5-.54,1.09-.99,1.74-1.34.75-.42,1.6-.63,2.46-.62.79-.02,1.58.13,2.32.42.64.26,1.22.65,1.71,1.15.48.5.84,1.1,1.06,1.75.25.72.37,1.47.36,2.22v7.7c.01.1,0,.19-.03.28-.03.09-.08.18-.14.25-.15.1-.32.15-.5.14h-2.57c-.3,0-.48-.04-.55-.13-.08-.16-.12-.34-.1-.52v-7.08c.02-.34-.04-.68-.17-.99-.13-.32-.32-.6-.56-.84-.37-.33-.82-.56-1.31-.65-.49-.09-.99-.03-1.45.16-.32.13-.63.3-.91.52-.28.21-.52.48-.71.77-.19.29-.32.61-.38.95v7.19c.01.09,0,.17-.02.26-.02.08-.06.16-.12.23-.17.1-.36.15-.56.13h-2.52c-.19.03-.39-.02-.55-.14-.1-.14-.14-.31-.13-.48v-12.29c-.02-.11,0-.23.03-.34.04-.11.1-.21.18-.29.08-.08.18-.14.29-.18.11-.04.23-.05.34-.03h1.51Z"/>
  <path class="b" d="m149.81,71.65c.08-.3.14-.6.15-.91.03-.36.04-.7.04-1.02-.3.55-.74,1.01-1.26,1.36-.64.39-1.38.58-2.13.55-.9.01-1.8-.17-2.63-.52-.83-.35-1.58-.88-2.2-1.54-.62-.66-1.1-1.43-1.41-2.27-.34-.89-.51-1.83-.5-2.78,0-.95.16-1.89.5-2.77.32-.83.8-1.59,1.41-2.24.61-.64,1.34-1.14,2.14-1.5.85-.37,1.76-.55,2.69-.54.8-.02,1.6.19,2.28.62.57.37,1.1.81,1.55,1.31l.25-1c.06-.19.15-.38.25-.56.07-.11.25-.17.53-.17h1.62c.21,0,.41.07.57.2.09.07.16.16.21.26.05.1.07.21.06.33v11.84c.02,1.02-.17,2.02-.54,2.97-.34.82-.86,1.56-1.51,2.17-.65.59-1.42,1.05-2.25,1.34-.9.31-1.85.47-2.8.46-.87,0-1.74-.12-2.58-.35-.44-.12-.88-.28-1.29-.49-.39-.19-.76-.44-1.09-.73-.1-.08-.19-.18-.25-.29-.07-.12-.11-.26-.11-.41,0-.09.01-.19.03-.28.03-.11.08-.21.17-.28l1.12-1.51c.14-.17.34-.28.56-.31.22.02.42.11.59.25.38.34.85.57,1.36.66.46.09.92.15,1.39.15.33,0,.65-.05.97-.14.32-.09.63-.22.92-.39.28-.16.54-.37.76-.62.21-.24.37-.53.44-.84Zm-6.27-7.08c0,.49.08.98.24,1.45.15.43.38.83.69,1.18.3.33.66.6,1.06.78.43.19.9.29,1.37.28.47.02.93-.06,1.36-.24.43-.18.81-.46,1.12-.81.62-.73.94-1.66.91-2.62,0-.49-.07-.98-.22-1.44-.14-.44-.37-.85-.67-1.2-.29-.34-.66-.62-1.06-.81-.45-.2-.94-.3-1.43-.29-.48,0-.95.09-1.39.29-.41.19-.77.47-1.06.81-.29.35-.52.76-.67,1.19-.16.46-.24.95-.24,1.44h0Z"/>
  <path class="b" d="m157.71,70.67v-19.37c0-.47.22-.7.64-.7h2.46c.09-.01.19,0,.28.03.09.03.17.08.24.15.07.07.12.15.15.24.03.09.04.19.03.28v7.84c.39-.5.88-.92,1.44-1.22.66-.33,1.38-.49,2.11-.46.91,0,1.8.18,2.63.56.78.36,1.48.88,2.06,1.52.58.66,1.03,1.43,1.34,2.25.33.89.5,1.82.49,2.77,0,.94-.17,1.88-.5,2.76-.31.83-.78,1.59-1.37,2.25-.58.63-1.28,1.15-2.06,1.51-.81.38-1.69.57-2.59.56-.77.03-1.54-.13-2.24-.46-.64-.35-1.19-.86-1.6-1.47-.04.21-.07.39-.11.55-.04.16-.07.32-.11.49-.03.15-.1.28-.21.38-.11.1-.25.16-.4.18-.32.04-.63.06-.95.06h-1.06c-.09,0-.18-.01-.27-.04-.08-.03-.16-.09-.22-.15-.06-.07-.11-.14-.14-.23-.03-.09-.04-.18-.03-.27Zm3.44-6.04c0,.49.09.97.27,1.43.33.86.98,1.55,1.8,1.94.4.19.85.29,1.29.29s.89-.1,1.29-.29c.4-.19.76-.46,1.05-.8.31-.35.55-.74.71-1.18.18-.45.27-.94.27-1.43,0-.49-.08-.98-.25-1.44-.15-.43-.39-.84-.69-1.19-.29-.33-.64-.61-1.04-.8-.4-.2-.83-.3-1.27-.29-.46,0-.91.1-1.32.29-.41.2-.78.47-1.09.8-.66.71-1.03,1.65-1.03,2.63v.03Z"/>
  <path class="b" d="m184.71,71.37c-.22.01-.44-.03-.64-.13-.15-.08-.26-.2-.33-.35-.08-.17-.14-.35-.18-.53-.05-.21-.1-.43-.15-.67-.52.55-1.14.99-1.83,1.29-.8.37-1.68.57-2.56.56-.78.01-1.55-.12-2.28-.41-.64-.25-1.2-.64-1.67-1.15-.45-.51-.8-1.1-1-1.75-.23-.71-.34-1.46-.33-2.21v-7.56c0-.11.01-.22.05-.32.04-.1.1-.2.17-.28.08-.08.17-.14.27-.18s.21-.06.32-.06h2.29c.11-.01.23,0,.33.03.11.04.2.1.28.17.12.18.18.39.17.6v6.94c-.02.33.03.66.15.98.11.31.29.6.51.84.23.23.5.4.8.52.3.12.62.17.94.15.34,0,.68-.07,1-.18.37-.12.71-.28,1.04-.49.31-.2.59-.46.81-.76.22-.28.34-.63.33-.98v-7.05c0-.52.27-.78.81-.78h2.27c.11,0,.21,0,.31.04.1.04.19.09.27.17.08.07.14.16.18.26.04.1.06.21.05.31v12.12c.01.12,0,.23-.04.34-.04.11-.1.21-.19.29-.08.08-.19.14-.3.18-.11.04-.23.04-.35.03h-1.51Z"/>
  <path class="b" d="m188.6,69c-.04-.09-.06-.18-.06-.28,0-.07.01-.13.03-.2.01-.04.04-.08.06-.12.03-.03.06-.06.1-.08l1.71-1.37s.08-.09.14-.11c.05-.02.11-.03.17-.03.16.02.32.09.45.2.35.3.76.62,1.2.98.44.35.98.54,1.54.53.23.03.47,0,.69-.06.22-.07.43-.19.61-.34.23-.26.35-.59.35-.94,0-.1-.02-.21-.07-.3-.04-.09-.11-.18-.18-.25-.18-.17-.38-.31-.59-.43-.22-.13-.45-.24-.69-.32-.19-.07-.38-.13-.57-.18-1.3-.26-2.51-.83-3.54-1.67-.36-.34-.64-.76-.83-1.22-.19-.46-.27-.96-.25-1.45,0-.53.13-1.06.38-1.53.26-.49.63-.92,1.06-1.26.5-.38,1.05-.68,1.65-.87.69-.22,1.41-.33,2.14-.32.86-.01,1.72.14,2.52.46.72.29,1.38.7,1.96,1.22.27.21.45.51.5.84,0,.07-.1.21-.31.42-.22.22-.45.42-.69.62-.25.21-.5.39-.73.55-.14.11-.29.19-.46.24-.19-.02-.36-.11-.48-.25-.29-.24-.6-.46-.92-.66-.41-.23-.87-.34-1.34-.32-.34,0-.68.06-.99.2-.15.06-.27.16-.35.29-.08.13-.12.29-.11.44,0,.17.07.34.17.48.1.14.24.25.41.31.51.25,1.04.45,1.58.6.66.22,1.31.48,1.94.77.54.24,1.04.56,1.5.94.4.34.72.75.95,1.22.23.5.35,1.05.33,1.61.01.66-.15,1.31-.46,1.89-.3.55-.73,1.02-1.25,1.37-.55.38-1.16.66-1.8.82-.69.19-1.4.28-2.11.28-.95,0-1.89-.17-2.77-.53-.83-.34-1.58-.85-2.18-1.51-.18-.2-.32-.43-.42-.67Z"/>
</svg>